<svg width="722" height="160" viewBox="0 0 722 160" fill="none" xmlns="http://www.w3.org/2000/svg">
<path d="M289.644 61.9534C289.008 62.3389 288.251 62.4729 287.522 62.3291C286.792 62.1853 286.143 61.774 285.701 61.176C283.529 58.0583 280.615 55.5307 277.222 53.8212C273.829 52.1117 270.063 51.2743 266.266 51.3845C251.458 51.3845 242.369 63.1009 242.369 79.8339C242.369 96.567 251.624 108.506 266.432 108.506C270.281 108.598 274.089 107.706 277.497 105.915C280.904 104.124 283.798 101.492 285.905 98.27C286.326 97.6641 286.959 97.2385 287.679 97.0774C288.399 96.9163 289.153 97.0315 289.792 97.4002L296.826 101.472C297.21 101.667 297.548 101.942 297.816 102.279C298.084 102.616 298.276 103.007 298.38 103.425C298.484 103.843 298.496 104.279 298.416 104.702C298.336 105.125 298.166 105.526 297.917 105.878C294.479 111.032 289.788 115.228 284.284 118.074C278.78 120.92 272.644 122.321 266.451 122.148C242.776 122.148 226.728 104.971 226.728 79.9274C226.728 54.8834 242.776 37.9274 266.099 37.9274C272.189 37.7584 278.228 39.0838 283.688 41.7878C289.147 44.4918 293.861 48.4921 297.418 53.4388C297.663 53.7719 297.836 54.1517 297.928 54.5546C298.02 54.9576 298.028 55.3751 297.951 55.7813C297.875 56.1875 297.716 56.5736 297.484 56.9157C297.252 57.2578 296.952 57.5486 296.603 57.77L289.644 61.9534Z" fill="black"/>
<path fill-rule="evenodd" clip-rule="evenodd" d="M341.397 114.207V117.612C341.397 118.012 341.478 118.408 341.635 118.776C341.792 119.144 342.022 119.477 342.311 119.753C342.599 120.03 342.941 120.245 343.316 120.386C343.69 120.528 344.089 120.591 344.489 120.574H352.226C352.615 120.574 353 120.497 353.359 120.349C353.718 120.2 354.045 119.982 354.32 119.707C354.595 119.432 354.813 119.105 354.962 118.746C355.111 118.386 355.187 118.001 355.187 117.612V78.9266C355.187 64.9146 345.229 59.1211 331.124 59.1211C323.196 59.1394 315.393 61.0966 308.394 64.8222C307.726 65.1944 307.226 65.8094 306.999 66.5398C306.771 67.2703 306.834 68.0602 307.173 68.7461L309.708 74.0399C309.882 74.3953 310.127 74.7116 310.426 74.9698C310.726 75.2281 311.075 75.4228 311.453 75.5422C311.83 75.6616 312.227 75.7033 312.621 75.6646C313.015 75.626 313.397 75.5079 313.744 75.3175C318.74 72.7207 324.272 71.3203 329.903 71.2265C334.808 71.2265 340.602 72.5786 340.602 77.5942C340.602 82.8411 334.264 83.7359 326.444 84.8396C325.814 84.9282 325.184 85.018 324.554 85.109C316.483 86.2382 303.396 88.7557 303.396 103.434C303.396 115.225 311.93 121.944 324.221 121.944C332.531 121.944 337.696 118.982 341.397 114.207ZM329.267 94.2584C333.941 93.4377 338.18 92.6942 340.602 90.8659V97.7521C340.602 106.747 334.123 110.616 327.182 110.616C321.592 110.616 317.723 108.117 317.723 102.768C317.723 96.9554 322.166 95.5301 327.515 94.5679C328.104 94.462 328.688 94.3591 329.267 94.2578V94.2584Z" fill="black"/>
<path d="M367.904 105.248C368.403 104.667 369.108 104.301 369.871 104.229C370.634 104.157 371.395 104.382 371.995 104.859C376.943 108.597 383.009 110.553 389.209 110.412C395.595 110.412 400.315 108.358 400.315 103.36C400.315 98.8065 395.983 97.8996 385.507 96.0672C374.401 94.2159 363.776 90.5139 363.776 77.8535C363.776 64.6554 375.16 59.0849 388.135 59.0849C396.272 58.9643 404.215 61.5704 410.699 66.4879C411.015 66.7357 411.278 67.0452 411.471 67.3977C411.664 67.7502 411.783 68.1383 411.821 68.5384C411.859 68.9384 411.815 69.342 411.692 69.7246C411.569 70.1072 411.37 70.4607 411.106 70.7637L407.404 75.1137C406.913 75.6971 406.218 76.0703 405.46 76.1564C404.703 76.2425 403.941 76.0351 403.332 75.5767C398.77 72.2402 393.249 70.4735 387.598 70.5418C382.138 70.5418 377.363 72.1342 377.363 76.4465C377.363 81.2407 384.063 82.1476 390.782 83.2951C405.127 85.7943 414.234 89.8847 414.234 101.805C414.234 114.318 404.22 122.055 388.32 122.055C379.63 122.321 371.12 119.545 364.257 114.207C363.95 113.955 363.695 113.644 363.509 113.292C363.322 112.941 363.207 112.556 363.171 112.16C363.135 111.763 363.178 111.364 363.298 110.985C363.417 110.605 363.611 110.253 363.869 109.95L367.904 105.248ZM423.026 117.612V42.2767C423.026 41.8878 423.103 41.5026 423.252 41.1433C423.401 40.784 423.619 40.4575 423.894 40.1824C424.169 39.9074 424.495 39.6892 424.854 39.5404C425.214 39.3916 425.599 39.3149 425.988 39.3149H434.521C436.157 39.3149 437.483 40.641 437.483 42.2767V68.0056C439.607 65.1706 442.379 62.8848 445.567 61.3391C448.755 59.7935 452.266 59.0327 455.808 59.1204C468.431 59.1204 475.835 68.1163 475.835 80.9625V117.612C475.835 118.001 475.758 118.386 475.61 118.746C475.461 119.105 475.243 119.431 474.968 119.706C474.693 119.981 474.366 120.2 474.007 120.348C473.648 120.497 473.263 120.574 472.874 120.574H464.34C463.555 120.574 462.802 120.262 462.246 119.706C461.691 119.151 461.379 118.398 461.379 117.612V84.2944C461.379 77.9083 459.324 72.1149 451.143 72.1149C443.387 72.1149 437.483 77.5758 437.483 86.6818V117.63C437.483 118.416 437.171 119.169 436.615 119.725C436.06 120.28 435.307 120.592 434.521 120.592H425.988C425.597 120.595 425.209 120.519 424.847 120.37C424.486 120.221 424.157 120.001 423.882 119.724C423.606 119.446 423.388 119.116 423.242 118.754C423.095 118.391 423.022 118.003 423.026 117.612V117.612Z" fill="black"/>
<path fill-rule="evenodd" clip-rule="evenodd" d="M563.593 100.435L569.738 118.575C569.923 119.165 570.288 119.682 570.783 120.054C571.277 120.426 571.876 120.634 572.494 120.648H583.066C583.543 120.65 584.014 120.536 584.437 120.317C584.861 120.098 585.225 119.779 585.499 119.388C585.774 118.998 585.951 118.546 586.014 118.072C586.077 117.599 586.024 117.117 585.859 116.668L558.001 41.3326C557.788 40.7637 557.406 40.2733 556.907 39.9262C556.408 39.5791 555.816 39.3917 555.208 39.3889H541.53C540.934 39.3819 540.351 39.5548 539.855 39.8852C539.359 40.2155 538.975 40.6878 538.752 41.2402L510.782 116.594C510.619 117.041 510.565 117.521 510.627 117.993C510.688 118.465 510.862 118.916 511.135 119.306C511.407 119.697 511.77 120.016 512.192 120.237C512.614 120.457 513.082 120.573 513.559 120.574H523.57C524.188 120.576 524.79 120.384 525.292 120.025C525.794 119.666 526.171 119.159 526.369 118.575L532.529 100.435H563.593ZM536.273 87.7926L548.228 52.5128L559.724 87.7926H536.273ZM607.311 68.1166V63.4519C607.332 63.0505 607.271 62.6491 607.131 62.2725C606.991 61.8958 606.775 61.5518 606.497 61.2618C606.22 60.9711 605.887 60.7397 605.519 60.5817C605.15 60.4238 604.752 60.3425 604.351 60.3429H595.815C594.181 60.3429 592.855 61.669 592.855 63.3041V137.344C592.855 138.98 594.181 140.306 595.815 140.306H604.351C605.985 140.306 607.311 138.98 607.311 137.344V112.781C609.4 115.715 612.185 118.084 615.417 119.674C618.649 121.263 622.225 122.024 625.824 121.888C642.202 121.888 652.789 108.173 652.789 90.4212C652.789 72.6707 642.202 59.1207 625.824 59.1207C622.236 58.9755 618.667 59.721 615.437 61.2907C612.206 62.8604 609.415 65.2055 607.311 68.1166V68.1166ZM637.592 90.4212C637.592 100.769 632.799 109.32 622.786 109.32C612.59 109.32 607.311 100.787 607.311 90.4212C607.311 80.0554 612.866 71.7445 622.786 71.7445C632.705 71.7445 637.592 80.0742 637.592 90.4212ZM676.168 68.1161V63.4513C676.191 63.0497 676.131 62.6477 675.993 62.27C675.855 61.8922 675.641 61.5468 675.364 61.255C675.086 60.9636 674.751 60.7323 674.38 60.5753C674.009 60.4182 673.61 60.3388 673.208 60.3419H664.672C663.887 60.3421 663.134 60.6542 662.579 61.2095C662.023 61.7649 661.712 62.5179 661.712 63.3031V137.344C661.712 138.979 663.038 140.305 664.672 140.305H673.208C674.842 140.305 676.168 138.979 676.168 137.343V112.78C678.259 115.712 681.045 118.078 684.276 119.668C687.507 121.257 691.082 122.02 694.681 121.887C711.079 121.887 721.667 108.171 721.667 90.4202C721.667 72.6696 711.079 59.1202 694.681 59.1202C691.093 58.9781 687.525 59.725 684.295 61.2944C681.065 62.8639 678.274 65.2072 676.168 68.1161V68.1161ZM706.469 90.4202C706.469 100.768 701.677 109.319 691.663 109.319C681.519 109.319 676.168 100.786 676.168 90.4202C676.168 80.0549 681.738 71.744 691.663 71.744C701.583 71.744 706.469 80.0732 706.469 90.4202Z" fill="black"/>
<path fill-rule="evenodd" clip-rule="evenodd" d="M104.174 0C120.315 0 128.256 0 136.974 2.73933C141.652 4.43358 145.901 7.13562 149.42 10.6541C152.938 14.1727 155.641 18.4217 157.335 23.1003C160.074 31.7448 160.074 39.7597 160.074 55.8261V104.174C160.074 120.223 160.074 128.237 157.335 136.9C155.64 141.578 152.938 145.827 149.42 149.346C145.901 152.864 141.652 155.566 136.974 157.261C128.329 160 120.315 160 104.248 160H55.7519C39.7038 160 31.6895 160 23.0261 157.261C18.3475 155.566 14.0985 152.864 10.58 149.346C7.06148 145.827 4.35945 141.578 2.6652 136.9C0 128.255 0 120.314 0 104.174V55.7525C0 39.7039 0 31.69 2.73933 23.0261C4.43352 18.3475 7.13553 14.0985 10.6541 10.5799C14.1726 7.0614 18.4216 4.35939 23.1003 2.6652C31.6707 0 39.7038 0 55.7525 0H104.174Z" fill="black"/>
<path d="M84.0354 52.4392C91.8987 52.4513 99.5044 55.2443 105.507 60.3241C106.127 60.8858 106.938 61.1891 107.774 61.1719C108.61 61.1548 109.408 60.8184 110.004 60.2317L116.187 54.031C116.497 53.7234 116.74 53.355 116.901 52.9489C117.062 52.5428 117.136 52.1078 117.121 51.6713C117.105 51.2348 116.999 50.8063 116.81 50.4127C116.62 50.0192 116.352 49.6691 116.02 49.3845C111.165 45.2542 105.55 42.1107 99.4909 40.1302L101.342 31.0043C101.438 30.5354 101.429 30.0509 101.314 29.5861C101.199 29.1214 100.982 28.688 100.679 28.3175C100.376 27.947 99.9942 27.6487 99.5614 27.4443C99.1285 27.2399 98.6555 27.1345 98.1768 27.1358H86.2751C85.5376 27.135 84.8219 27.386 84.2463 27.8472C83.6708 28.3083 83.2698 28.9521 83.1097 29.672L81.4438 37.8347C65.5993 38.6125 52.1611 46.4604 52.1611 62.5455C52.1611 76.4463 63.2672 82.4251 75.0024 86.6085C86.108 90.7361 91.9944 92.273 91.9944 98.0848C91.9944 103.897 86.1268 107.562 77.4828 107.562C69.0942 107.696 60.9894 104.525 54.9192 98.7332C54.3168 98.1408 53.5058 97.8089 52.661 97.8089C51.8161 97.8089 51.0051 98.1408 50.4027 98.7332L43.776 105.211C43.4664 105.509 43.2202 105.867 43.052 106.263C42.8838 106.659 42.7971 107.085 42.7971 107.515C42.7971 107.945 42.8838 108.371 43.052 108.767C43.2202 109.163 43.4664 109.521 43.776 109.819C49.1752 114.877 55.7652 118.487 62.9336 120.315L61.0828 128.774C60.985 129.247 60.9921 129.735 61.1038 130.204C61.2154 130.674 61.4289 131.113 61.7291 131.491C62.0292 131.869 62.4088 132.176 62.8408 132.391C63.2729 132.606 63.7469 132.724 64.2294 132.735H76.1682C76.9114 132.739 77.6335 132.488 78.2132 132.023C78.7929 131.558 79.1951 130.907 79.3524 130.181L81.0736 122.166C100.065 121 111.67 110.783 111.67 95.8263C111.67 82.055 100.102 76.2432 86.0527 71.5044C78.0195 68.4873 71.078 66.5065 71.078 60.5465C71.078 54.5865 77.5564 52.4392 84.0354 52.4392V52.4392Z" fill="white"/>
</svg>
