<svg width="665" height="160" viewBox="0 0 665 160" fill="none" xmlns="http://www.w3.org/2000/svg">
<path d="M99.0253 157.515C93.1137 151.603 85.84 148.498 78.7843 145.474L78.2122 145.229L74.4528 143.812L73.5538 143.458L72.9 143.185C49.7986 135.013 35.6599 115.943 35.0606 92.188C35.0606 91.2073 35.0606 90.1721 35.0606 89.1097C35.0742 85.3884 35.284 81.6698 35.6872 77.9676C35.9868 75.7065 36.6951 70.3671 36.7224 70.2308L38.7655 58.1353L39.1469 55.9559L39.3376 55.2204H39.2014C39.2014 53.5314 39.4466 51.461 39.4466 49.4178C39.4466 41.0272 37.3217 35.7967 32.5543 32.228L31.9277 31.6014L42.198 18.2255L41.8984 17.8441C41.1547 16.877 40.6779 15.7301 40.509 14.5205L40.3728 12.995L41.7894 13.5126C42.7156 13.8395 43.6419 14.1392 44.5136 14.4116H44.9223L55.1108 1.17188L55.6012 1.9619C57.5082 5.17648 61.0496 6.75653 66.0622 6.75653C68.6066 6.71566 71.1401 6.45141 73.6355 5.9665L83.8241 4.38645L92.3509 3.40573H93.0047C94.9934 3.21504 97.1183 3.10607 99.3522 3.10607C104.106 3.13604 108.849 3.50926 113.545 4.223L120.792 5.28545L129.673 6.78377C130.98 6.78377 132.397 7.02895 134.004 7.02895C137.164 7.30954 140.308 6.32882 142.749 4.30473C143.185 3.90154 143.577 3.45477 143.92 2.96986L145.01 1.60775L154.327 13.8667L154.79 13.7033L161.056 11.4149L162.908 10.7339C165.695 9.63058 168.553 8.72069 171.462 8.00967L173.315 7.62828L172.552 9.34453C172.051 10.5541 171.449 11.7201 170.754 12.8315L169.637 14.5205L171.517 13.7578L174.05 12.7498L172.824 15.0654C171.424 17.648 169.58 19.9608 167.376 21.9032L166.858 22.2573L167.212 22.7749C167.485 23.2653 167.618 23.821 167.594 24.3822C167.599 24.9543 167.488 25.5182 167.267 26.044C166.916 26.7932 166.436 27.4742 165.85 28.0599L165.469 28.4686L168.003 31.7921L167.512 32.1735C162.636 35.8239 160.293 41.4358 160.293 49.3906V49.6357C160.293 50.0444 160.293 50.4803 160.293 50.9161C160.307 52.8939 160.435 54.8662 160.674 56.8277L161.9 64.5917C162.772 69.7677 163.235 72.4647 163.235 72.5737C163.48 74.862 164.107 80.7463 164.161 81.2094C164.461 88.5376 164.488 89.2186 164.488 89.2459V90.1721C164.488 103.03 160.184 116.025 153.237 124.116V124.279C148.742 129.728 142.558 137.328 125.668 143.349C116.215 146.809 107.797 150.187 100.578 156.589L100.306 156.888L100.088 157.133L99.5701 157.706L99.0253 157.515Z" fill="black"/>
<path d="M165.415 30.9199C165.415 30.7292 165.197 30.6475 165.088 30.6475C164.979 30.6475 165.279 30.7292 165.415 30.9199ZM171.327 13.3759C172.059 12.2372 172.689 11.0331 173.206 9.77995L174.432 7.05573L171.381 7.6823C168.436 8.39605 165.543 9.30594 162.718 10.4065L160.893 11.0876L154.6 13.3759L145.011 0.517603L143.512 2.42456C143.18 2.85771 142.815 3.26906 142.423 3.65045C140.102 5.5683 137.116 6.49727 134.114 6.23846C132.643 6.23846 131.144 6.23846 129.918 6.02053L121.01 4.5222L113.791 3.45976C109.059 2.74601 104.278 2.3728 99.4889 2.34283C97.1243 2.33193 94.7596 2.44908 92.4059 2.69698L83.8246 3.70494L73.636 5.28499C71.1761 5.75355 68.678 6.0178 66.1717 6.07501C61.2681 6.07501 57.999 4.60393 56.2555 1.58005L55.302 0L44.7593 13.6211C43.8603 13.3759 42.9341 13.1035 42.0351 12.7493L39.6378 11.9048L39.9102 14.4384C40.0791 15.7596 40.594 17.01 41.4085 18.0616L31.0837 31.5192L32.1462 32.5544C36.7229 36.0687 38.766 41.1085 38.766 49.2811C38.766 51.5695 38.6026 53.9123 38.4664 55.683C38.4664 55.9827 38.3029 56.6093 38.085 57.8897L36.0418 70.1486C36.0418 70.2849 35.3608 75.2702 35.0339 77.8854C34.6089 81.6203 34.3909 85.377 34.38 89.1365C34.38 90.1989 34.38 91.2341 34.38 92.2148C35.0066 116.515 49.5539 135.802 73.2819 143.975L74.2354 144.356L77.9676 145.746L78.5124 145.991C85.5136 148.988 92.7601 152.066 98.5627 157.869L99.4889 158.822L100.47 157.732L100.688 157.487L100.933 157.215C108.07 150.867 116.434 147.516 125.832 144.111C142.886 138.118 149.124 130.49 153.674 125.042V124.878C160.702 116.706 165.088 103.493 165.088 90.4986C165.088 90.1989 165.088 89.872 165.088 89.5723C165.088 89.2727 165.088 89.5723 164.761 81.3997C164.761 81.3997 164.162 75.6788 163.862 72.7367C163.862 72.7367 163.862 72.7367 162.527 64.7547L161.356 57.0452C161.124 55.1028 161.007 53.1468 161.002 51.1881V49.6625C161.002 41.9257 163.29 36.4773 167.976 32.9631L168.984 32.2003L166.26 28.795C166.881 28.1548 167.396 27.4193 167.785 26.6156C168.36 25.3816 168.36 23.9568 167.785 22.72C170.063 20.7231 171.964 18.334 173.397 15.6643L175.413 11.8231L171.327 13.3759ZM46.9387 14.3294L55.1114 3.6777C57.8356 7.84575 62.7392 8.14542 67.4248 8.30887L70.5577 7.98196L83.9336 5.88431L92.9235 4.84911C101.491 4.25523 110.097 4.77011 118.531 6.37467L130.436 8.30887C135.449 8.69026 140.87 8.55405 144.275 4.79463L145.011 4.05909L152.584 14.0297C152.358 14.1496 152.121 14.2477 151.876 14.3294L148.77 15.5008H148.389L144.52 10.4338C140.23 12.4987 135.435 13.2833 130.708 12.6949L123.762 11.6324L115.044 10.3248L105.891 9.26235C100.445 8.85372 94.9721 8.97086 89.5455 9.6165L81.9449 10.7062L69.3318 12.5859C64.6597 13.1879 59.9142 12.3707 55.7107 10.2431L51.7878 15.3374L50.235 15.0377C49.0636 14.7925 47.9739 14.5746 46.9387 14.3294ZM142.858 37.9756C142.858 39.2288 141.306 39.5012 140.815 40.5091L140.134 40.9723C140.791 40.9178 141.393 40.5909 141.796 40.0733C142.777 39.7464 145.91 39.0926 146.073 39.6919C146.236 40.2912 145.91 40.8633 144.983 41.5443C142.981 42.7702 140.655 43.3587 138.309 43.2334C136.982 43.2769 135.664 43.4867 134.386 43.8599L127.794 45.7941C125.396 46.4915 122.863 46.6032 120.411 46.121C116.79 45.1839 113.066 44.7072 109.323 44.7044C108.781 44.7671 108.302 45.094 108.043 45.5762C108.424 45.5762 109.024 45.3038 109.432 45.5762C109.432 46.0938 109.432 48.8453 108.261 49.8805C107.997 49.4909 107.803 49.0577 107.689 48.6001C107.553 48.137 105.945 41.1902 108.996 38.9836C110.645 38.6894 112.344 38.9863 113.791 39.8281C116.161 41.1085 120.166 41.7895 123.299 42.9882C124.633 42.8247 126.023 42.3889 127.358 42.2254L136.838 41.1085C138.5 41.4354 138.745 39.2832 140.216 39.1198C141.197 39.1198 141.796 38.4387 142.559 38.0029C142.668 37.7304 142.886 37.7849 142.886 37.9756H142.858ZM65.2999 42.2254C66.1363 41.7868 67.0952 41.6342 68.0242 41.7895C69.7704 42.0293 71.4431 42.6422 72.9278 43.5875C76.1696 44.6772 78.7031 46.9111 81.9994 47.9463C82.1356 47.6738 81.6725 47.4287 81.5363 47.238C83.4977 45.6361 85.658 44.3013 87.9654 43.2606C89.2622 41.2992 91.4742 40.1386 93.8225 40.1822H94.3674V40.945C94.1031 42.4188 93.6155 43.8409 92.9235 45.1676C91.9156 45.5381 90.9321 45.9739 89.9814 46.4752L82.3535 50.9429C80.3921 52.4957 79.4114 50.7522 77.3682 49.3901C74.9083 48.2459 72.609 46.7803 70.5304 45.0314C70.5304 44.7589 71.1298 44.8951 70.8573 44.5955C69.8031 44.7589 68.7706 45.0422 67.779 45.44C67.3431 45.6307 66.2534 46.0121 65.8993 45.44L66.4169 45.3038C67.0434 44.8679 67.2886 43.9961 68.3511 43.751C67.3676 43.0454 66.1853 42.664 64.973 42.6613L65.2999 42.2254ZM152.475 42.7975C152.475 43.3696 151.385 44.7317 149.914 45.0858C148.402 45.4672 146.798 45.2438 145.446 44.4593C145.446 45.7669 147.653 46.23 149.233 45.9576C147.746 47.2979 145.787 47.9926 143.785 47.8918C141.88 47.7937 140.039 47.159 138.472 46.0665C138.282 47.2924 140.652 48.3549 142.341 48.4911C139.979 49.6189 137.263 49.7551 134.795 48.8725C133.683 48.5946 132.648 48.0634 131.771 47.3197C131.771 48.3004 133.051 49.0632 134.223 49.3356C131.983 50.2373 129.417 49.4146 128.12 47.3742C131.716 46.339 134.468 45.3855 138.146 44.4593C141.099 44.9687 144.123 44.0724 146.318 42.0347C146.719 41.5879 147.016 41.0567 147.19 40.4819C147.566 40.3866 147.961 40.3866 148.334 40.4819C148.525 40.6726 152.039 41.4626 152.366 42.7975H152.475ZM122.509 48.0552C124.146 48.1805 125.794 48.0416 127.385 47.6466C127.794 48.3277 127.004 49.4718 126.322 49.2266C126.622 50.1801 127.494 51.4333 127.33 52.5502L124.034 51.2426C124.87 52.4249 125.274 53.8578 125.178 55.3017C124.17 54.5389 122.073 54.4572 121.228 53.8306C121.61 55.3561 122.618 57.5628 121.228 59.0066C119.975 58.1076 119.376 56.7182 118.34 55.7103C118.757 57.3966 118.556 59.1755 117.768 60.7229C117.142 59.9056 114.39 58.8431 114.472 57.9986C114.2 57.9986 113.464 60.9408 112.538 61.5129C111.702 59.9682 110.715 58.5108 109.596 57.1541C109.95 56.7455 110.386 56.9907 110.222 56.3096C110.059 55.6286 108.561 54.9475 107.089 54.3482C107.335 53.8905 107.615 53.4519 107.934 53.0406C108.825 51.7929 109.558 50.4389 110.113 49.0087C110.484 48.1424 110.724 47.2243 110.822 46.2845C112.32 46.4752 113.355 46.7204 115.18 46.9111C117.006 47.1018 119.812 47.7283 122.318 48.0552H122.509ZM91.4252 47.5104C91.0138 47.8918 90.6869 48.3549 90.4717 48.8725C89.9541 50.4907 90.5099 52.2587 91.8611 53.2857C92.4495 53.7434 93.1278 54.0676 93.8498 54.2392C91.8801 55.0129 90.4281 56.721 89.9814 58.7887C89.2703 57.9033 89.0088 56.7346 89.2731 55.6286C88.6819 56.326 87.8619 56.7891 86.9575 56.9362C86.6905 55.9364 86.9003 54.8712 87.5296 54.0485C87.2571 53.5582 85.6499 53.8033 84.8053 54.3482C84.5983 53.411 85.0451 52.4521 85.895 52.0053C85.6226 51.4605 85.0505 51.8419 83.7157 52.0053C84.5602 51.5695 85.8405 50.8884 87.2027 50.0167L91.4252 47.5104ZM92.297 85.8674C94.2856 89.0547 94.4763 89.1909 95.5388 91.0162C96.6012 92.8414 100.987 99.7609 101.968 101.178C102.949 102.594 107.416 110.413 110.44 111.911C108.152 114.417 109.242 117.523 105.455 118.122C103.276 118.476 97.2823 120.356 95.0212 116.815C92.8146 112.638 91.9591 107.879 92.5694 103.193C94.0513 105.926 96.1408 108.285 98.6716 110.086C93.768 104.637 94.3674 103.466 91.9973 100.496C91.0819 99.1125 90.5725 97.4998 90.5262 95.838C90.3355 93.359 90.3628 90.8255 90.2538 88.3464C90.2919 86.9707 90.1366 85.595 89.7907 84.2601C89.6272 83.7697 89.2731 82.2987 89.1641 81.7811C89.1178 81.3833 89.1178 80.9801 89.1641 80.5824C90.0576 82.394 91.0384 84.1566 92.1062 85.8674H92.297ZM107.226 38.1936C105.449 39.9452 103.464 41.4735 101.314 42.743C99.4344 43.7237 97.5819 44.5137 96.356 43.9144C95.1301 43.3151 95.5115 40.9995 95.5115 40.6998C95.5115 40.4002 95.5115 40.0733 95.5115 39.9098C96.4378 39.4467 97.7726 39.7191 98.2357 38.5749C98.6989 37.4308 98.4537 36.5318 98.6716 35.5511C98.8896 34.5703 100.279 34.2979 100.497 33.3717C98.944 34.3796 97.7726 35.9052 95.7839 35.8235C95.1846 35.66 95.5933 34.8973 95.2664 34.5431C94.9394 34.189 94.885 34.08 94.8305 33.8076H95.1029C95.1955 33.8076 95.2664 33.734 95.2664 33.6441C95.2664 33.6441 95.2663 33.4534 95.1029 33.4534C94.9422 33.4861 94.776 33.4861 94.6125 33.4534C94.6125 33.1265 94.6125 32.6906 94.6125 32.4727L93.2504 32.2003C93.2504 31.2196 94.0132 30.3478 94.0677 29.2581C94.2039 29.4488 94.8305 29.4216 94.5308 29.803C94.4082 29.9937 94.4082 30.2388 94.5308 30.4295C94.5308 29.9392 96.2198 29.3126 95.2936 28.9857C94.885 28.9857 93.768 29.1764 93.6863 28.5771C93.7244 27.7217 94.0187 26.8935 94.5308 26.207C95.5388 27.0515 96.8736 27.7598 97.255 29.1219C97.6092 29.5305 97.9906 30.0481 98.5082 30.0481C99.6251 29.6123 100.17 30.7292 101.232 30.6475C101.235 30.484 101.303 30.326 101.423 30.2116C101.668 30.0999 101.957 30.1816 102.104 30.4023C102.24 30.9199 101.913 31.2468 101.668 31.5737C101.251 31.8407 100.775 32.0014 100.279 32.0368C101.151 32.6361 101.913 31.6827 102.758 31.492C103.148 31.3912 103.551 31.5873 103.711 31.9551C104.066 33.9983 103.194 36.9677 105.755 37.9756C106.18 38.071 106.605 38.1445 107.035 38.1936H107.226ZM146.89 112.401C145.256 112.238 143.839 112.401 143.24 113.872C142.665 115.387 142.011 116.869 141.278 118.313C140.358 119.868 138.843 120.98 137.083 121.391C134.958 121.991 131.962 122.127 131.635 120.846C132.18 118.122 135.748 117.822 137.274 117.087C139.998 115.725 140.352 113.246 140.434 110.658C136.457 108.097 128.447 101.75 128.447 101.75C131.809 105.122 135.386 108.271 139.154 111.175C139.396 112.968 138.478 114.717 136.865 115.534C135.721 116.161 134.441 116.624 132.833 117.441C130.109 118.967 130.926 121.173 127.385 122.59C125.832 123.162 122.1 123.68 123.081 121.664C124.061 119.648 123.081 119.566 123.081 119.566C121.686 119.999 120.256 120.31 118.804 120.492C118.068 120.492 117.36 120.002 117.986 119.403C118.613 118.803 118.586 119.021 118.967 118.721C119.419 118.427 119.801 118.038 120.084 117.577C120.465 116.896 120.792 115.97 120.356 115.725C119.803 115.48 119.155 115.597 118.722 116.025C117.196 117.714 117.087 120.574 112.674 119.757C112.674 119.757 107.498 118.558 111.666 112.728C112.865 111.175 109.623 109.323 107.716 107.007C103.766 102.54 93.2504 85.6767 93.2504 85.6767C92.188 84.1239 91.0438 82.2442 90.0358 80.7186C89.0279 79.1931 88.7282 75.924 91.0166 76.2509C92.079 76.4688 92.4332 76.9592 93.7408 76.4688C95.0484 75.9785 94.5308 77.3951 93.7408 78.0489C93.1878 78.6373 93.2641 79.5744 93.9042 80.0648C94.8032 80.5824 95.0212 79.5745 96.0564 79.8469C97.0916 80.1193 97.7726 82.5711 99.5706 83.0887C100.088 83.2249 100.388 83.0887 100.497 82.8708C100.769 82.1352 99.9248 81.1273 100.115 80.1465C100.682 80.8712 101.409 81.4487 102.24 81.8356C103.493 82.5166 104.202 82.6801 103.875 81.6449C103.548 80.6097 103.33 79.6289 103.33 79.6289C103.235 78.8362 103.815 78.1197 104.61 78.0489C105.035 78.1115 105.4 78.3758 105.591 78.7572C106.381 80.201 106 81.0183 107.798 81.4814C111.056 87.2813 115.276 92.4872 120.275 96.8732C121.029 97.4426 121.852 97.9112 122.726 98.2626C122.1 97.6633 121.119 96.7915 120.683 96.3556C113.355 89.3271 108.724 82.7345 108.833 81.4542C110.931 80.5824 111.258 78.5392 111.884 78.7299C112.511 78.9206 111.203 80.5824 111.394 81.4542C111.584 82.3259 111.966 82.5983 113.301 82.5983C110.931 84.9684 116.978 86.9571 121.473 86.8481C123.873 88.4309 126.513 89.6077 129.292 90.3351C129.292 90.3351 129.619 91.9424 130.681 91.9969C132.444 94.6285 134.402 97.1239 136.538 99.4613C139.916 103.384 143.73 109.214 146.89 112.401ZM120.792 108.397C113.546 100.687 106.381 89.0002 105.428 88.6461C105.428 88.6461 114.336 102.267 115.943 104.474C117.55 106.68 119.757 108.942 120.792 110.794C121.37 110.099 121.37 109.094 120.792 108.397ZM107.662 39.5012C104.556 42.4433 108.234 49.8805 106.136 52.9316C105.891 53.2667 105.67 53.6235 105.482 53.994C104.18 53.5418 102.804 53.3293 101.423 53.3675C100.579 53.3675 99.5978 53.5582 98.9168 53.6126C97.4321 53.6126 95.9501 53.7134 94.4763 53.9123C94.6616 53.5473 94.8795 53.2013 95.1301 52.8771C93.8852 53.0514 92.6375 52.5665 91.8338 51.5967C91.3407 50.932 91.21 50.0657 91.4797 49.2811C91.8883 48.1642 93.0597 47.1562 93.5228 46.121C94.0404 45.2793 94.4191 44.3612 94.6398 43.3968C94.8141 44.2767 95.5251 44.9551 96.4105 45.0858C98.1894 45.2275 99.9629 44.748 101.423 43.7237C100.238 45.6089 98.2003 46.7885 95.9746 46.8838C97.6201 46.9737 99.2546 46.5678 100.66 45.7124C102.641 44.3013 104.371 42.5714 105.782 40.5909C106.313 40.0842 106.959 39.7109 107.662 39.5012ZM104.147 49.9077C103.578 51.1091 102.311 51.8201 100.987 51.6784C98.4264 51.6784 97.8271 50.2891 97.8271 50.2891C98.0233 51.8392 99.478 52.9098 101.014 52.6319C102.644 52.7736 104.063 51.5395 104.147 49.9077ZM165.987 31.8189C162.601 34.7147 160.31 38.6866 159.503 43.0699C158.645 48.2487 158.645 53.5309 159.503 58.7069L162.01 74.3439L162.745 81.1817L163.045 89.1909C163.563 107.661 154.682 132.397 124.334 142.368L117.006 145.092C110.625 147.604 104.698 151.148 99.4616 155.58C92.1335 149.015 83.4705 145.419 74.7257 141.959C52.9156 135.672 37.5619 116.147 36.5867 93.468C36.3388 87.886 36.5376 82.2932 37.186 76.7413L38.3574 68.5686L40.3188 57.4538C41.4167 51.0927 41.0081 44.5601 39.1202 38.3843C37.9597 35.6464 36.1671 33.2191 33.8897 31.3013C36.4232 27.9233 39.3381 24.0276 42.0623 20.6223V20.8948V21.0582C42.4165 22.009 42.8633 22.9216 43.3972 23.7824C43.5879 24.1638 43.8058 24.5452 44.0238 24.9266L39.6105 30.8382C45.059 36.9949 45.3314 45.6852 45.059 53.8578L44.4052 58.9249L42.0079 73.4177L41.0544 81.5904L40.782 89.1637C39.8285 107.716 53.9672 131.444 79.929 139.262C86.8049 141.845 93.3158 145.304 99.2982 149.56C105.349 145.351 111.914 141.935 118.831 139.398C148.797 130.953 157.978 107.77 158.332 92.46C158.542 86.9108 158.297 81.3534 157.596 75.8423L156.616 68.3507L155.036 58.7887C154.159 53.1686 154.224 47.4423 155.226 41.844C157.482 40.7489 159.108 38.6812 159.64 36.2321L159.803 35.7145C161.868 34.3034 163.704 32.5844 165.252 30.6202C165.333 30.7292 165.578 31.1106 166.014 31.8189H165.987ZM171.653 9.20786C169.529 13.8663 168.275 15.3646 165.088 16.5905C165.088 16.5905 154.736 19.7506 152.094 20.7858C149.655 21.6848 147.288 22.769 145.011 24.0276C139.562 20.6768 129.401 23.1559 126.949 24.0276C122.912 25.6458 119.095 27.768 115.589 30.3478C115.099 29.8302 114.418 29.0402 113.846 28.9857C114.821 29.5959 115.368 30.702 115.262 31.8461C115.698 31.8461 117.387 30.4568 118.531 31.4647C119.675 32.4727 118.531 33.6986 118.095 34.6521C119.348 33.6986 120.82 32.9358 122.045 33.8348C123.271 34.7338 121.855 36.559 121.337 37.4853C122.454 37.2673 123.598 36.4228 124.415 37.4853C125.233 38.5477 124.007 39.256 122.89 39.8826C123.952 39.8826 124.034 40.6454 127.14 40.8361L123.217 41.3537C122.509 41.2174 121.691 40.8088 120.302 40.4274C116.733 39.4195 114.608 38.3025 113.219 37.8667C111.9 37.3954 110.476 37.3 109.105 37.5942C108.533 37.5942 108.506 37.8122 108.043 37.8667C112.756 36.1776 111.339 30.484 113.491 26.9698C115.752 22.6928 120.52 21.6575 124.77 20.8948C130.218 20.132 138.936 19.3147 141.496 18.7699C145.476 17.9907 149.386 16.8874 153.183 15.4736C154.6 14.8198 160.811 12.7494 163.208 11.7686C165.973 10.7253 168.804 9.86985 171.681 9.20786H171.653ZM171.953 14.8742C170.828 17.7619 168.877 20.2546 166.341 22.0389C162.427 23.8805 158.207 24.9893 153.892 25.308C151.682 25.6213 149.429 25.436 147.299 24.7632C146.768 24.6079 146.256 24.3872 145.773 24.1093C152.192 20.9656 158.945 18.5628 165.905 16.9446C169.992 15.6098 170.509 15.4463 171.98 14.8742H171.953ZM99.4889 21.1127C97.5738 21.1617 95.8139 22.1888 94.8305 23.8369C94.2856 23.401 94.4763 22.5021 95.0756 21.712C96.3315 20.7313 98.0178 20.5025 99.4889 21.1127ZM166.505 25.9618C166.039 26.9371 165.35 27.787 164.489 28.4409C162.173 30.375 151.14 31.9823 146.918 30.5657C151.412 28.7678 151.876 27.2694 152.148 26.1253C156.951 26.0381 161.694 25.041 166.123 23.1831C166.804 23.0197 166.804 25.1173 166.505 25.9618ZM142.477 23.5373C143.757 23.9731 145.746 24.8721 144.82 25.1445C137.764 26.316 133.16 28.2774 120.983 32.9358C120.539 32.9413 120.098 33.0148 119.675 33.1537C119.863 32.41 119.621 31.6227 119.049 31.1106C118.212 30.4214 117.046 30.2933 116.079 30.7837C119.594 28.3646 123.369 26.3459 127.33 24.7632C130.665 23.5808 134.174 22.9733 137.71 22.9652C139.322 22.8508 140.941 23.0469 142.477 23.5373ZM106.272 23.9186C106.433 24.5997 106.15 25.308 105.564 25.6894C104.202 26.3432 103.357 24.9266 102.24 24.5997C100.17 24.2728 97.6637 24.5997 95.675 24.1093C96.2988 23.2212 97.1706 22.5375 98.1813 22.1479C99.9357 21.5513 101.813 21.4178 103.63 21.7665C104.82 21.9899 105.815 22.8017 106.272 23.9186ZM107.934 24.6269C107.934 24.9539 107.934 25.0356 107.662 25.2808C107.446 25.6812 106.975 25.8665 106.545 25.7166C106.49 25.1119 106.787 24.5316 107.307 24.2183C107.637 24.0821 107.991 24.3518 107.948 24.7059C107.945 24.725 107.939 24.7441 107.934 24.7632V24.6269ZM151.521 26.316C151.304 27.2967 149.86 28.4408 148.797 29.0402C147.735 29.6395 145.746 30.1844 145.147 31.1378C141.567 32.6307 137.868 33.8157 134.086 34.6793C130.79 35.4966 128.093 36.2049 124.96 36.7497C124.347 36.3602 123.601 36.2321 122.89 36.3956C123.707 34.7066 123.408 33.6714 121.936 33.1265L137.71 27.4874C140.657 26.5203 143.698 25.8637 146.781 25.5259C148.282 26.0027 149.841 26.2669 151.413 26.316H151.521ZM102.785 25.5804C104.205 26.3051 105.392 27.4084 106.218 28.7678C106.327 29.5142 106.084 30.2661 105.564 30.8109C105.079 31.0152 104.689 31.3939 104.474 31.8734C104.556 31.4239 104.447 30.9608 104.175 30.593C103.676 30.296 103.286 29.8493 103.058 29.3126C101.396 29.3126 98.944 29.3126 98.045 28.5771C98.0124 28.1984 97.8489 27.8415 97.5819 27.5691C98.0995 27.5691 100.034 27.5691 101.096 27.5691C102.159 27.5691 103.602 27.5691 103.82 28.0322C104.038 28.4953 103.63 28.2229 103.493 28.2774C103.357 28.3319 103.221 28.2774 103.139 28.2774C103.488 28.7541 104.104 28.953 104.665 28.7678C105.024 28.6261 105.158 28.1875 104.937 27.8688C104.638 27.2694 103.902 27.1605 102.976 27.0243C102.05 26.888 97.2278 26.8336 97.2278 26.8336C96.5249 26.1334 95.7158 25.545 94.8305 25.0901C94.8305 24.7359 95.1846 24.409 95.4026 24.5452C97.8298 25.1064 100.301 25.4524 102.785 25.5804ZM109.133 25.8801C109.133 26.207 109.269 26.1253 109.541 26.4249C109.511 27.0025 109.182 27.5201 108.67 27.787C108.198 28.0894 107.591 28.0894 107.117 27.787C106.85 27.6481 106.566 27.5391 106.272 27.4601C106.272 26.4249 107.525 25.9073 108.315 25.5532C108.67 25.4442 109.024 25.5259 109.133 25.8801ZM61.2136 26.6974C65.8175 27.4874 65.5996 31.6554 66.662 33.4534C63.8043 33.8212 60.903 33.7013 58.0808 33.0993C47.4835 30.6747 45.4676 25.6894 42.6344 18.9606C47.8104 23.5917 59.0342 26.316 61.2136 26.6974ZM164.162 29.4216C161.966 32.2221 159.174 34.5022 155.989 36.0959C154.262 36.8178 152.339 36.9241 150.541 36.3956C149.282 36.1068 148.094 35.5592 147.054 34.7883C145.337 33.3989 145.419 32.4727 145.446 32.0641C145.474 31.6554 146.046 31.0016 146.645 31.1923C152.499 32.3392 158.564 31.7426 164.08 29.4761L164.162 29.4216ZM108.288 28.5498C108.498 28.5226 108.708 28.5226 108.915 28.5498C109.187 29.4761 108.179 29.7485 107.58 29.9119C106.98 30.0754 106.899 29.585 106.735 29.2854C106.771 28.983 106.703 28.6751 106.545 28.4136C106.545 28.2229 106.684 28.0595 106.872 28.0322C107.179 28.5008 107.743 28.7296 108.288 28.6043V28.5498ZM67.0979 33.9983C67.8607 35.3958 68.9313 36.5972 70.2308 37.5125C68.757 37.8585 67.2505 38.041 65.7358 38.0573C64.0822 38.1363 62.4259 38.09 60.7777 37.9211C56.9366 37.6215 52.0057 32.9903 50.8071 31.1923C53.5558 32.568 56.5089 33.4888 59.5518 33.9165C62.0472 34.317 64.5862 34.3905 67.0979 34.1345V33.9983ZM79.6293 37.458C79.5776 38.1418 79.929 38.7902 80.5283 39.1198C79.7165 39.147 78.9047 39.2397 78.1038 39.3922C73.9548 39.5529 70.021 37.5397 67.7245 34.08C68.8959 34.0255 70.0673 34.1181 71.2115 34.3524C74.1564 34.9654 76.9923 36.0142 79.6293 37.458ZM150.704 37.2401C149.99 38.5177 148.702 39.3704 147.244 39.5284C146.972 38.6676 146.084 38.1609 145.201 38.357C144.605 38.3979 144.019 38.5259 143.458 38.7384C143.76 38.2562 143.76 37.6433 143.458 37.1584C143.362 36.984 143.191 36.8641 142.995 36.8314C142.436 36.8587 141.897 37.0494 141.442 37.3763C140.815 37.7577 140.216 37.6487 139.726 37.8394C138.848 38.1799 138.116 38.8147 137.655 39.6374C137.465 39.8008 137.219 39.6374 136.783 39.6374C136.348 39.6374 129.592 40.4819 129.592 40.4819C127.818 40.5064 126.05 40.2885 124.334 39.8281C125.336 39.4276 125.75 38.229 125.206 37.2946C125.206 37.2946 134.386 35.2786 138.009 34.2707C140.339 33.704 142.616 32.9494 144.82 32.0096C144.602 32.8541 145.419 34.3252 146.863 35.4693C148.032 36.2784 149.331 36.8778 150.704 37.2401ZM158.414 35.4421C157.49 39.9643 152.38 42.22 148.416 39.8553C149.718 39.444 150.816 38.5586 151.494 37.3763C153.973 37.7468 156.488 37.0439 158.414 35.4421ZM77.5044 39.7736C76.8942 40.0596 76.6872 40.8252 77.0686 41.3809C77.2838 41.8113 77.627 42.1655 78.0493 42.3889C77.5535 42.7321 77.1285 43.1653 76.7961 43.6692C75.7119 43.0372 74.5704 42.4978 73.3909 42.0619C71.4975 40.787 69.2473 40.1386 66.9617 40.2095C66.1036 40.3702 65.2645 40.6154 64.4554 40.945C62.8236 40.5691 61.3144 39.7818 60.0694 38.6567C62.118 38.9536 64.1939 39.0163 66.2534 38.8474C67.7871 38.7411 69.3073 38.5123 70.8029 38.1663C72.8923 39.1906 75.1807 39.7382 77.5044 39.7736ZM108.506 56.6365C107.771 56.6365 108.234 56.9907 106.681 58.1893C105.921 58.4944 105.095 58.598 104.284 58.489C104.708 57.876 104.708 57.0615 104.284 56.4458C103.992 55.6694 103.286 55.1191 102.458 55.0292C103.09 55.4597 103.589 56.0508 103.902 56.7455C104.109 57.3448 103.938 58.0095 103.466 58.4345C102.9 58.5762 102.374 58.8568 101.941 59.2518C102.156 57.6799 101.374 56.1407 99.9792 55.3834C101.241 56.4404 101.799 58.1158 101.423 59.7149C101.096 60.4504 98.1813 62.4391 97.3095 61.7036C95.8929 60.4504 97.0371 59.4425 96.5195 58.0531C96.5195 57.8079 96.3015 57.4538 96.1109 57.5355C96.5195 58.8976 95.9202 59.497 96.1109 60.9135C95.4271 61.2486 94.6643 61.3903 93.9042 61.3222C93.4793 60.712 93.3485 59.941 93.5501 59.2245C93.9315 57.9278 94.5907 56.7264 95.4843 55.7103C95.1574 55.841 94.8523 56.0236 94.5853 56.2551C93.3757 57.2059 92.6484 58.6415 92.5966 60.178C92.5884 60.652 92.7655 61.1124 93.087 61.4584C92.8145 61.4584 91.4797 61.4584 91.0983 60.6139C90.3355 59.0338 91.4524 57.59 92.2697 56.5548C92.7873 55.9909 93.4057 55.5278 94.0949 55.1927C96.0836 54.656 98.1377 54.3999 100.197 54.4299C101.794 54.2038 103.417 54.3618 104.937 54.893C106.218 55.2662 107.425 55.8574 108.506 56.6365ZM135.748 87.6381C135.966 88.7823 134.468 89.5996 133.296 89.763H132.942C132.942 88.6733 132.752 86.5757 133.896 86.3578C134.754 86.1562 135.593 86.7609 135.667 87.6381H135.748ZM117.605 74.8888C119.596 77.3896 121.936 79.5908 124.552 81.4269C122.568 79.6589 120.746 77.7165 119.103 75.6243C124.29 79.3565 129.703 82.7591 135.312 85.8129C134.277 85.5677 132.997 85.4588 132.37 86.3033C131.744 87.1478 132.207 88.4282 131.825 89.6813C131.76 90.2861 131.261 90.7492 130.654 90.771C130.474 88.845 129.134 87.2241 127.276 86.6847C128.142 87.4665 128.766 88.4772 129.074 89.5996C126.399 88.7796 123.849 87.5864 121.501 86.0581C118.959 86.3223 116.39 85.8974 114.063 84.8322C112.184 83.579 116.134 83.3884 114.499 82.108C113.791 81.5359 112.974 82.108 112.374 81.2362C111.775 80.3645 113.464 79.302 112.81 78.0216C112.402 77.2044 111.612 77.2316 110.931 78.0216C110.25 78.8117 109.841 81.2635 107.825 80.7459C106.654 80.4462 107.008 78.4575 105.755 77.504C104.986 76.7985 103.801 76.7985 103.03 77.504C102.537 78.0734 102.3 78.8253 102.377 79.5744C99.9792 74.8071 102.377 64.7002 102.377 64.7002C99.843 71.2656 99.8703 76.9592 101.804 80.419C101.025 79.9667 100.377 79.3184 99.9248 78.5392C99.1538 77.0845 98.7969 75.4445 98.8896 73.7991C97.364 76.5233 100.279 81.2635 99.1347 81.2362C97.9906 81.209 98.1813 79.3293 96.9826 78.7027C95.7839 78.0761 95.2936 79.1386 94.8032 78.7027C94.3129 78.2668 96.8736 76.3871 94.5853 75.0795C93.3594 74.3712 92.7873 75.6788 91.8611 75.0795C91.1419 74.7362 90.3301 74.6327 89.5455 74.7798C89.1096 72.4642 92.0245 62.0305 92.0245 62.0305C93.4302 62.4391 94.9422 62.243 96.1926 61.4856C97.5002 63.9374 100.115 61.9215 101.232 60.968C102.349 60.0146 102.377 59.6332 103.385 59.1973C104.392 58.7614 105.782 59.388 106.899 58.8976C107.536 58.6797 108.07 58.2329 108.397 57.6445C110.154 60.1126 111.549 62.8178 112.538 65.6809C113.867 68.9364 115.567 72.0256 117.605 74.8888ZM93.9042 38.5749C91.1855 38.2453 88.5321 39.5611 87.1482 41.9257C84.7808 42.5823 82.645 43.8954 80.9914 45.7124C79.7628 45.2575 78.5778 44.6908 77.45 44.0234C77.7305 43.296 78.289 42.7076 79.0028 42.3889C78.3489 41.9802 77.2048 41.4081 77.4227 40.6726C77.8041 39.3105 79.5748 40.1005 81.5635 39.3105C80.7735 38.9291 79.82 38.3298 80.2287 37.1856C80.6373 36.0414 82.3535 36.2321 83.7701 36.5863C82.9284 35.9542 82.863 34.7147 83.6339 33.9983C84.5002 33.6605 85.4374 33.546 86.3582 33.6714C86.5516 32.7587 86.9956 31.9197 87.6385 31.2468C86.794 31.4647 86.3309 32.4999 86.0312 33.1537C83.307 32.9358 82.2718 34.189 82.8711 35.878C81.7542 35.4802 80.5093 35.9079 79.8745 36.9132C76.412 34.979 72.5763 33.8103 68.6235 33.4807H67.4793C67.0897 32.9195 66.801 32.2929 66.6348 31.6282C66.3706 29.9473 65.4252 28.449 64.0196 27.4874C69.6805 28.3101 75.2406 29.7158 80.61 31.6827C76.7961 28.9585 66.4986 27.4329 60.2329 25.9891C54.8989 24.8939 49.7937 22.8834 45.1407 20.0503C43.1384 18.887 41.76 16.8874 41.3813 14.6018C44.1791 15.4817 47.0395 16.1464 49.9353 16.5905C52.1692 17.0264 53.9672 17.326 57.1273 18.0071C60.2874 18.6881 64.3465 19.914 64.3465 19.914C71.048 21.821 78.5124 20.5951 85.0778 22.829C88.0472 23.9459 87.802 27.5419 88.3196 30.2661L89.0279 30.9744C89.0279 34.7883 90.8531 36.2866 93.9042 38.5749ZM115.235 74.7253C117.082 77.1581 119.141 79.4192 121.392 81.4814C118.918 79.8414 116.714 77.8309 114.853 75.5154C112.527 72.8484 110.991 69.5847 110.413 66.0896C111.582 69.1925 113.208 72.1046 115.235 74.7253ZM80.828 26.1525C76.9868 24.1093 71.4839 24.2728 68.3783 23.4283C67.1687 23.1668 65.9755 22.8208 64.8096 22.3931C66.0627 22.611 67.1796 22.9652 68.5145 23.1286C72.7098 23.3357 76.8561 24.0876 80.8552 25.3625C82.7731 26.3541 84.0916 28.212 84.3967 30.3478C83.6503 28.6261 82.408 27.1659 80.828 26.1525Z" fill="white"/>
<path d="M7.13745 113.218H6.37468L6.56537 113.954C8.46688 120.437 6.52451 127.439 1.55281 132.015L0 133.405L2.04316 133.051C3.96101 132.661 5.92245 132.525 7.87299 132.642C12.0492 132.647 16.141 133.805 19.6961 135.993L16.6177 151.276C16.5932 151.502 16.5932 151.731 16.6177 151.957C16.6777 152.883 17.0209 153.766 17.5985 154.49C19.8078 156.52 22.5484 157.882 25.4987 158.413H25.7166C38.1636 161.181 51.199 158.623 61.6763 151.357L67.6696 147.434L70.3938 145.827L73.5539 143.893C88.9131 134.089 108.568 134.089 123.925 143.893L125.123 144.629L132.724 150.077L137.6 153.155C148.538 159.925 161.819 161.775 174.187 158.25C176.175 157.596 180.262 156.234 180.861 152.638C180.861 152.638 177.919 137.219 177.701 136.456L178.137 136.156C183.427 133.282 189.548 132.321 195.463 133.432L197.588 133.868L195.953 132.424C191.069 127.924 189.14 121.05 190.968 114.662L191.158 113.927H190.396C183.318 113.758 176.262 114.79 169.528 116.978C166.395 118.176 161.71 119.974 160.32 124.224L160.157 136.51C160.157 136.51 160.157 139.943 160.157 141.359C153.431 140.793 147.018 138.265 141.714 134.086L139.943 132.86L132.697 128.283C124.783 123.189 115.864 119.863 106.544 118.531C90.9181 116.599 75.1231 120.476 62.1667 129.427L55.3017 134.086C49.8532 137.627 44.0234 141.087 36.9132 141.169C36.9132 140.243 36.9132 124.823 36.9132 124.823C36.9132 122.372 35.0062 120.111 31.3285 118.067C23.747 114.608 15.4681 112.946 7.13745 113.218Z" fill="white"/>
<path d="M29.6665 131.007C31.7206 130.563 33.6384 129.629 35.2512 128.283C35.2512 129.128 35.2512 140.678 35.2512 141.114C30.6936 141.346 26.204 139.946 22.5836 137.164L22.4201 136.864C22.0115 136.464 21.7527 135.936 21.6846 135.366C21.6846 135.151 21.7309 134.936 21.8208 134.74C23.0167 133.04 24.8801 131.931 26.9423 131.688L28.5496 131.225L29.6665 131.007Z" fill="black"/>
<path d="M161.983 128.855C163.955 130.378 166.246 131.432 168.684 131.933C170.806 132.407 172.828 133.257 174.65 134.44C175.1 134.745 175.388 135.235 175.44 135.775C175.476 135.973 175.476 136.175 175.44 136.374C174.026 138.354 171.915 139.727 169.529 140.215C167.036 140.915 164.464 141.288 161.874 141.332L161.983 128.855Z" fill="black"/>
<path d="M8.79922 118.994C8.78832 117.604 8.64394 116.218 8.36334 114.853C16.3153 114.763 24.1802 116.496 31.3558 119.92C33.181 121.091 35.2514 122.644 35.2514 124.796V124.96C34.8972 127.684 32.1458 128.501 29.8029 129.237L26.6701 130.218C23.9976 130.517 21.6248 132.062 20.2682 134.386C15.5308 131.754 10.1177 130.58 4.71289 131.008C7.44256 127.605 8.88912 123.355 8.79922 118.994Z" fill="black"/>
<path d="M172.389 131.308H172.144L169.065 130.382C166.589 130 164.29 128.867 162.473 127.14C162.154 126.647 161.993 126.066 162.01 125.478C162.004 124.971 162.108 124.47 162.309 124.007C164.598 120.465 168.521 119.24 172.307 118.041L173.315 117.741C178.459 116.395 183.746 115.693 189.061 115.644C188.783 117.055 188.628 118.485 188.598 119.921C188.489 124.187 189.911 128.352 192.603 131.662C187.201 131.278 181.798 132.43 177.02 134.986C176.113 133.125 174.41 131.774 172.389 131.308Z" fill="black"/>
<path d="M54.294 136.62L64.8912 129.782C76.9922 121.759 91.5641 118.33 105.972 120.111C114.559 121.275 122.808 124.217 130.191 128.747L137.029 132.997L144.003 137.546C150.734 142.104 158.942 143.935 166.968 142.668C170.523 142.267 173.836 140.671 176.366 138.146L179.091 152.638C178.709 154.545 176.611 155.363 174.95 156.207L174.514 156.398C161.402 160.288 147.228 157.959 136.048 150.078L125.505 143.267C114.611 136.201 101.399 133.632 88.6464 136.102C81.697 137.576 75.1043 140.409 69.25 144.439L59.5518 150.732C50.2867 156.76 39.112 159.128 28.196 157.379C24.8098 157.054 21.587 155.769 18.9064 153.674C18.4596 153.23 18.1545 152.66 18.0347 152.039C18.0347 152.039 20.5682 139.453 20.9223 137.655C24.4638 141.551 29.5581 142.395 34.5434 142.668C41.6101 142.853 48.5432 140.728 54.294 136.62Z" fill="black"/>
<path d="M26.9971 145.174L23.2377 144.629L23.1015 144.901C23.1015 144.901 23.4829 145.174 23.4556 145.392L22.4204 152.42C22.4204 152.638 22.4204 152.692 22.039 152.692C21.9764 152.782 21.9301 152.886 21.9028 152.992C22.7228 153.183 23.5483 153.33 24.3819 153.428V153.128C24.0822 152.965 24.0277 152.883 24.0277 152.774L24.4364 150.05C24.9921 150.197 25.556 150.306 26.1254 150.377C27.6291 150.75 29.1384 149.797 29.4489 148.279C29.7486 146.917 29.1765 145.501 26.9971 145.174ZM26.2071 148.661L24.7088 148.443C24.8859 147.781 25.0139 147.108 25.0902 146.427L26.5068 146.617C26.9563 146.642 27.3812 146.824 27.7054 147.135V147.871C27.7054 148.606 27.2695 148.824 26.2071 148.661ZM34.2435 145.936C33.2465 145.879 32.2658 146.222 31.5193 146.89C30.6639 147.762 30.1845 148.936 30.1845 150.159C29.8412 152.48 31.6011 154.583 33.9439 154.654C34.9464 154.736 35.9353 154.39 36.6681 153.7C37.5262 152.829 38.0057 151.655 38.003 150.431C38.0847 149.203 37.6842 147.993 36.886 147.053C36.1696 146.389 35.2215 146.029 34.2435 146.045V145.936ZM35.415 152.801C35.0363 153.161 34.5214 153.338 33.9984 153.292C32.609 153.292 31.9007 152.202 31.9552 150.377C31.898 149.527 32.1949 148.688 32.7725 148.061C33.1675 147.726 33.6742 147.549 34.1891 147.571C34.7148 147.574 35.2161 147.792 35.5784 148.17C36.0906 148.838 36.3248 149.677 36.2322 150.513C36.284 151.355 35.987 152.183 35.415 152.801ZM42.9338 148.579C41.8986 148.579 41.0269 148.579 40.9179 147.925C40.8089 147.271 41.1358 146.972 41.8714 146.808C43.1517 146.536 43.8873 146.808 43.969 147.244V147.353L44.2687 147.544C44.5901 146.814 44.8707 146.07 45.1132 145.31V145.01L44.7046 145.201L44.4594 145.419H44.0507H43.5604C42.9147 145.285 42.2473 145.285 41.5989 145.419C39.3651 145.909 38.8747 147.38 39.0927 148.524C39.4468 150.241 41.1903 150.268 42.6069 150.268C44.0235 150.268 44.5956 150.268 44.759 150.976V151.739C44.3695 152.167 43.8382 152.436 43.2607 152.502C42.5688 152.668 41.8414 152.6 41.1903 152.311L40.9996 152.066V151.848H40.7544C40.5065 152.573 40.2968 153.308 40.1279 154.055H40.2913H40.4275V153.891H40.9451H41.4355H43.3697C45.876 153.373 46.7205 151.739 46.448 150.459C46.2029 148.579 44.3776 148.552 42.9338 148.552V148.579ZM52.8772 149.941L50.153 144.138C50.7332 143.953 51.2972 143.724 51.842 143.457C52.1689 143.457 52.2506 143.457 52.3868 143.457C52.4849 143.485 52.5884 143.485 52.6865 143.457C52.4659 142.806 52.2043 142.169 51.8965 141.55H51.5968C51.5968 141.55 51.5968 141.877 51.2154 142.013L46.2846 144.275C45.9577 144.438 45.876 144.275 45.7942 144.275C45.688 144.25 45.5763 144.25 45.4673 144.275L46.2574 146.209C46.3663 146.233 46.478 146.233 46.5843 146.209C46.5843 145.964 46.5843 145.909 46.9112 145.773L48.6547 144.983C48.6547 145.201 51.1882 150.758 51.1882 150.758C51.2127 150.829 51.2127 150.905 51.1882 150.976C51.1882 150.976 51.1882 150.976 51.052 151.167C51.0411 151.257 51.0411 151.349 51.052 151.439C51.1882 151.439 53.2586 150.513 53.2586 150.513L53.3948 150.077C53.0407 150.077 52.9862 150.077 52.8772 149.914V149.941ZM61.6764 143.376C61.6764 143.539 61.6764 143.621 61.3495 143.784L58.2984 145.773C57.9688 145.146 57.6065 144.536 57.2087 143.948L58.8432 142.885C59.1702 142.695 59.2246 142.695 59.3336 142.885C59.4344 142.904 59.5352 142.904 59.6333 142.885C59.3391 142.291 59.0013 141.717 58.6253 141.169C58.53 141.134 58.4237 141.134 58.3256 141.169V141.305C58.3256 141.469 58.3256 141.55 58.026 141.687L56.3097 142.804C56.3097 142.804 55.3018 141.115 55.3018 141.087C55.3018 141.06 58.1622 139.344 58.1622 139.344C58.1622 139.344 58.5436 139.153 58.6526 139.344C58.7533 139.363 58.8541 139.363 58.9522 139.344C58.658 138.75 58.3202 138.175 57.9443 137.628H57.6446C57.6446 137.628 57.6446 137.954 57.3449 138.172L52.6593 141.196V141.496C53.1769 141.305 53.2314 141.496 53.3403 141.496L57.3177 147.353C57.3177 147.516 57.3177 147.598 57.127 147.871C57.1106 147.96 57.1106 148.053 57.127 148.143L62.194 145.174C62.194 145.174 62.6027 144.983 62.7116 145.174C62.8206 145.364 63.0113 145.174 63.0113 145.174C62.7007 144.582 62.3575 144.01 61.9761 143.457C61.8889 143.395 61.7854 143.357 61.6764 143.348V143.376ZM68.7322 139.534V139.371L66.3621 138.036C67.1739 137.273 67.2556 136.012 66.5528 135.148C65.7056 133.893 63.9375 133.686 62.8206 134.713L59.4698 136.865C59.4344 136.963 59.4344 137.069 59.4698 137.164C59.824 137.164 59.8784 137.164 60.0147 137.301L63.8831 143.267C63.8831 143.485 63.8831 143.539 63.8831 143.703C63.8667 143.803 63.8667 143.904 63.8831 144.002C64.5968 143.634 65.2887 143.226 65.9535 142.776L65.79 142.504C65.4359 142.504 65.3541 142.504 65.2452 142.504L63.6924 140.134C64.1173 139.951 64.5178 139.722 64.891 139.453L67.2883 140.897L67.697 141.169C67.697 141.169 67.697 141.169 67.5607 141.387C67.5444 141.477 67.5444 141.569 67.5607 141.659L69.6584 140.379V140.079C69.6584 140.079 69.3315 139.834 68.7322 139.534ZM64.4279 137.709L62.8751 138.717C62.5645 138.118 62.2186 137.535 61.8399 136.974L63.311 136.02C64.0465 135.53 64.5641 135.584 64.9455 136.184L65.1362 136.892C65.0354 137.224 64.8256 137.513 64.5369 137.709H64.4279ZM84.6144 130.654H84.3419V131.035V131.58C84.0859 132.021 83.6636 132.343 83.1705 132.479C82.6447 132.683 82.0618 132.683 81.536 132.479C80.8577 132.062 80.37 131.397 80.1739 130.626C79.8443 129.834 79.8443 128.94 80.1739 128.147C80.4817 127.632 80.983 127.259 81.5632 127.112C82.326 126.894 83.1433 127.112 83.3067 127.63V127.793C83.5301 127.068 83.7126 126.333 83.8516 125.586V125.341H83.5519L83.3067 125.559H82.9526H82.5167C81.9555 125.412 81.3644 125.412 80.8005 125.559C78.4249 126.169 77.1391 128.741 78.0762 131.008C78.5557 133.263 80.8522 134.631 83.0616 133.977C83.9769 133.745 84.7669 133.171 85.2682 132.37L85.5406 132.043H85.7585C85.8539 131.997 85.9302 131.92 85.9765 131.825L84.7233 130.654H84.6144ZM93.2501 131.008V130.735C93.2501 130.735 91.6973 128.556 91.6973 128.501C92.7462 128.164 93.3455 127.06 93.0594 125.995C92.8687 124.524 91.6428 123.761 89.8721 124.006L85.922 124.578V124.878C85.922 124.878 86.3306 125.014 86.3579 125.232L87.3658 132.288C87.3658 132.506 87.3658 132.56 87.1206 132.642C87.0989 132.74 87.0989 132.844 87.1206 132.942C87.9352 132.906 88.7443 132.825 89.5452 132.697V132.397C89.191 132.397 89.1366 132.234 89.1093 132.043C89.0821 131.852 88.7279 129.319 88.7279 129.319C89.172 129.36 89.6187 129.36 90.0628 129.319L91.6701 131.607L91.888 132.043C91.888 132.043 91.888 132.043 91.6701 132.179C91.6565 132.253 91.6565 132.326 91.6701 132.397C92.4846 132.362 93.2937 132.28 94.0946 132.152C94.1301 132.046 94.1301 131.931 94.0946 131.825C93.795 131.607 93.686 131.471 93.2501 131.008ZM91.098 127.085C90.8446 127.363 90.4932 127.529 90.1173 127.548L88.2921 127.793C88.2921 127.793 88.1014 126.05 88.0741 125.832L89.7904 125.586C90.6621 125.586 91.1252 125.75 91.2342 126.431L91.098 127.085ZM100.578 130.463H97.0096C97.0096 130.463 97.0096 128.501 97.0096 128.338H98.971C99.3524 128.338 99.4069 128.338 99.4341 128.529H99.7338V126.567H99.4341C99.4341 126.812 99.2707 126.867 98.8893 126.867H96.8461V124.878H100.224C100.578 124.878 100.633 124.878 100.66 125.069H100.987V123.107H100.66C100.66 123.325 100.497 123.38 100.142 123.38H94.694V123.707C95.2388 123.707 95.2388 123.925 95.2388 124.115V131.226C95.2388 131.444 95.2388 131.498 94.8029 131.552V131.852H100.66C101.041 131.852 101.069 131.852 101.096 132.043H101.423V130.054H101.123C101.096 130.381 101.069 130.436 100.687 130.436L100.578 130.463ZM107.852 126.785C108.402 126.213 108.92 125.614 109.405 124.987H109.241C109.138 125.036 109.018 125.036 108.914 124.987L108.56 124.796L108.152 124.551C107.571 124.233 106.934 124.028 106.272 123.952C104.011 123.652 103.03 124.878 102.867 126.022C102.621 127.766 104.283 128.365 105.591 128.747C106.898 129.128 107.471 129.428 107.362 130.109L107.007 130.79C106.512 131.068 105.926 131.147 105.373 131.008C104.665 130.937 103.997 130.64 103.466 130.163V129.836V129.618H103.248L101.94 131.471L102.158 131.634C102.284 131.596 102.404 131.542 102.512 131.471L102.948 131.689L103.384 131.934L105.237 132.56C106.307 132.789 107.422 132.563 108.315 131.934C108.838 131.563 109.184 130.991 109.269 130.354C109.541 128.392 107.825 127.63 106.544 127.248C105.264 126.867 104.774 126.622 104.855 125.968L105.155 125.423C105.457 125.235 105.82 125.175 106.163 125.26C106.798 125.281 107.397 125.556 107.825 126.022V126.349V126.622C107.866 126.673 107.912 126.717 107.961 126.758L107.852 126.785ZM115.807 133.95C115.905 133.982 116.011 133.982 116.106 133.95L115.316 131.825C115.218 131.809 115.117 131.809 115.017 131.825C114.992 131.961 114.992 132.1 115.017 132.234L114.663 132.642C114.224 132.893 113.698 132.942 113.219 132.778C111.865 132.334 111.176 130.828 111.72 129.509C111.87 128.662 112.35 127.907 113.055 127.412C113.603 127.175 114.227 127.175 114.771 127.412C115.229 127.512 115.624 127.799 115.861 128.202V128.801V129.019H115.997C116.561 128.52 117.098 127.992 117.605 127.439L117.795 127.275H117.468H117.223L116.978 127.058L116.678 126.731C116.262 126.191 115.692 125.783 115.044 125.559C114.017 125.249 112.905 125.366 111.966 125.886C110.925 126.534 110.187 127.575 109.922 128.774C109.105 130.961 110.38 133.37 112.647 133.923C113.543 134.225 114.521 134.168 115.371 133.759H115.752C115.831 133.784 115.894 133.844 115.916 133.923L115.807 133.95ZM122.508 136.946L123.217 129.727V129.291C123.217 129.291 123.217 129.128 123.516 129.291C123.603 129.229 123.669 129.144 123.707 129.046L121.228 127.902L121.01 128.147C121.01 128.147 121.282 128.42 121.282 128.447L120.955 128.856L116.134 134.304C116.134 134.304 115.888 134.522 115.779 134.495C115.695 134.557 115.63 134.642 115.589 134.74C116.223 135.089 116.88 135.396 117.55 135.666L117.686 135.366C117.496 135.366 117.441 135.121 117.441 135.039C117.441 134.958 117.441 135.039 117.441 135.039L117.605 134.822L118.531 133.786C118.531 133.786 121.037 134.903 121.064 134.931C120.985 135.41 120.931 135.892 120.901 136.374V136.456C120.901 136.456 120.901 136.456 120.656 136.456C120.585 136.535 120.528 136.628 120.492 136.729C121.146 137.085 121.819 137.404 122.508 137.682C122.606 137.628 122.683 137.54 122.726 137.437C122.604 137.295 122.563 137.099 122.617 136.919L122.508 136.946ZM121.5 130.245C121.337 130.871 121.092 133.405 121.092 133.514C120.569 133.203 120.021 132.931 119.457 132.697L121.582 130.19L121.5 130.245ZM130.463 141.905L134.331 135.721C134.331 135.721 134.468 135.557 134.658 135.721C134.849 135.884 134.903 135.503 134.903 135.503L132.506 133.895L132.261 134.113C132.28 134.203 132.28 134.296 132.261 134.386C131.692 134.871 131.092 135.317 130.463 135.721L128.229 137.301C128.243 137.257 128.243 137.211 128.229 137.164C128.393 136.701 128.638 135.312 128.638 135.312C128.828 134.168 129.101 132.588 129.183 132.588C129.264 132.588 129.183 132.588 129.401 132.588C129.49 132.522 129.567 132.441 129.618 132.343L127.194 130.735L126.976 130.953C126.976 130.953 127.139 131.28 126.976 131.389L123.217 137.301C123.217 137.301 123.053 137.464 122.89 137.301C122.726 137.137 122.672 137.519 122.672 137.519C123.268 137.968 123.887 138.385 124.524 138.772L124.688 138.526C124.524 138.336 124.497 138.254 124.497 138.172L127.521 133.35C127.51 133.405 127.51 133.462 127.521 133.514C127.248 134.44 126.595 137.573 126.595 137.573L126.186 139.889C126.259 139.97 126.341 140.044 126.431 140.107L128.638 138.608C128.638 138.608 131.498 136.456 132.016 136.102V136.32C131.253 137.355 129.046 140.924 129.046 140.924C129.046 140.924 129.046 141.087 128.665 140.924C128.284 140.76 128.42 141.142 128.42 141.142L130.354 142.449L130.572 142.231C130.572 142.231 130.381 141.905 130.463 141.905ZM140.434 147.053C140.134 147.271 140.052 147.271 139.753 147.053L136.838 145.01L140.379 139.78C140.379 139.78 140.543 139.562 140.924 139.78C141.017 139.72 141.101 139.646 141.169 139.562C140.464 139.006 139.725 138.488 138.963 138.009C138.867 138.052 138.785 138.118 138.717 138.2C139.044 138.581 139.017 138.663 138.881 138.826L134.985 144.765C134.985 144.928 134.822 144.983 134.522 144.765C134.222 144.547 134.277 144.983 134.277 144.983L138.935 148.143C138.935 148.143 139.262 148.415 139.208 148.579C139.153 148.742 139.426 148.797 139.426 148.797C139.856 148.257 140.257 147.693 140.624 147.108C140.581 147.029 140.515 146.963 140.434 146.917V147.053ZM146.154 143.049C146.427 143.294 146.4 143.348 146.4 143.376L146.073 143.757L141.06 148.96C141.06 148.96 140.815 149.178 140.679 149.124C140.592 149.189 140.515 149.274 140.461 149.369C141.093 149.748 141.749 150.085 142.422 150.377V150.077C142.286 150.077 142.232 149.859 142.232 149.75V149.532L143.212 148.552C143.212 148.552 145.691 149.75 145.691 149.778C145.601 150.254 145.539 150.736 145.501 151.221V151.467C145.501 151.467 145.501 151.467 145.283 151.467C145.196 151.532 145.119 151.616 145.065 151.712L147.081 152.747C147.171 152.682 147.247 152.6 147.299 152.502C147.201 152.344 147.201 152.142 147.299 151.984L148.034 145.01V144.384C148.034 144.384 148.034 144.22 148.334 144.384C148.426 144.313 148.503 144.217 148.552 144.111L146.1 142.885L146.154 142.912V143.049ZM146.699 145.228C146.509 145.855 146.182 148.361 146.154 148.47C145.629 148.146 145.084 147.857 144.52 147.598L146.754 145.146L146.699 145.228ZM155.608 146.399C155.907 146.617 155.934 146.699 155.88 146.89L154.736 151.467C154.602 152.434 153.616 153.038 152.693 152.72C152.24 152.63 151.84 152.366 151.576 151.984C151.41 151.556 151.41 151.08 151.576 150.649L152.693 146.073C152.693 145.882 152.693 145.827 153.074 145.827C153.455 145.827 153.074 145.555 153.074 145.555C152.289 145.285 151.489 145.059 150.677 144.874V145.092C151.058 145.337 151.058 145.419 151.004 145.609L149.75 150.077C149.08 151.9 150.325 153.861 152.257 154.027C153.158 154.316 154.139 154.237 154.981 153.809C155.706 153.327 156.199 152.57 156.343 151.712L157.46 147.162C157.46 146.944 157.46 146.89 157.869 146.917C158.277 146.944 158.032 146.645 158.032 146.645C157.337 146.391 156.626 146.173 155.907 145.991L155.608 146.263V146.399ZM162.009 146.754H158.631C158.604 146.852 158.604 146.955 158.631 147.053C158.986 147.053 159.013 147.244 159.013 147.462V154.436C159.013 154.654 159.013 154.708 158.686 154.763V155.063H161.982C163.137 155.147 164.276 154.766 165.142 154C165.927 153.131 166.327 151.981 166.259 150.813C166.523 148.375 164.448 146.323 162.009 146.617V146.754ZM164.08 150.922C164.08 152.992 163.399 153.646 161.356 153.646H160.457C160.457 153.646 160.457 148.579 160.457 148.197H161.356C163.453 148.197 164.08 148.879 164.08 150.922ZM174.214 151.521C174.108 151.494 173.996 151.494 173.887 151.521C173.887 151.766 173.887 151.848 173.424 151.93L169.882 152.856C169.882 152.611 169.474 151.031 169.419 150.813L171.299 150.322C171.68 150.322 171.735 150.322 171.789 150.322C171.898 150.352 172.01 150.352 172.116 150.322C172.018 149.671 171.882 149.026 171.708 148.388C171.601 148.361 171.49 148.361 171.381 148.388C171.381 148.633 171.381 148.715 170.918 148.797C170.455 148.879 168.956 149.287 168.956 149.314C168.956 149.069 168.548 147.435 168.548 147.435L171.817 146.672C171.817 146.672 172.225 146.672 172.307 146.672C172.389 146.672 172.607 146.672 172.607 146.672C172.509 146.021 172.372 145.375 172.198 144.738C172.092 144.71 171.98 144.71 171.871 144.738C171.871 144.983 171.871 145.065 171.435 145.146L165.987 146.536C165.96 146.645 165.96 146.756 165.987 146.863C166.532 146.863 166.559 146.863 166.613 147.135L168.411 154C168.411 154.218 168.411 154.3 168.057 154.436C168.03 154.545 168.03 154.657 168.057 154.763L173.751 153.374C173.751 153.374 174.187 153.374 174.241 153.374C174.35 153.403 174.462 153.403 174.568 153.374C174.511 152.752 174.421 152.134 174.296 151.521H174.214ZM76.3872 135.83L71.2929 131.008L70.8298 130.545C70.8298 130.545 70.8298 130.381 70.8298 130.272C70.8571 130.166 70.8571 130.054 70.8298 129.945L68.3508 131.144C68.3126 131.25 68.3126 131.367 68.3508 131.471C68.7049 131.471 68.7322 131.471 68.7594 131.471V131.961L70.1215 139.18C70.1215 139.344 70.1215 139.507 70.1215 139.562C70.0915 139.668 70.0915 139.782 70.1215 139.889L72.1102 138.935L71.9467 138.663C71.6743 138.663 71.5654 138.663 71.5109 138.663V138.418L71.2929 137.028C71.2929 137.028 73.7447 135.802 73.772 135.775C74.107 136.151 74.4612 136.505 74.8344 136.837V137.001C74.8344 137.001 74.8344 137.001 74.671 137.164C74.6573 137.254 74.6573 137.347 74.671 137.437C75.4392 137.162 76.1856 136.835 76.9048 136.456C76.9321 136.358 76.9321 136.255 76.9048 136.156C76.6596 136.047 76.6052 136.047 76.3872 135.83ZM72.764 134.794C72.1837 135.018 71.6198 135.282 71.075 135.584C71.075 135.366 70.5301 132.588 70.4757 132.315C70.8571 132.806 72.655 134.604 72.7368 134.685L72.764 134.794Z" fill="white"/>
<path d="M54.893 62.0036L51.7602 60.8867L53.3947 63.9378L50.4253 66.0082L53.7761 66.771L53.5037 70.1491L56.2279 67.8335L58.7886 70.1491L58.6252 66.6076L62.1122 66.3079L59.1973 64.0468L60.8591 61.0502L57.4538 62.0581L56.1462 58.7891L54.893 62.0036Z" fill="black"/>
<path d="M74.9435 67.1792L71.8107 66.144L73.418 69.1407L70.4758 71.0749L73.8811 71.8104L73.5542 75.2429L76.2784 72.9273L79.0026 75.2429L78.7847 71.7014L82.2989 71.4018L79.4113 69.1951L81.0458 66.144L77.6133 67.0703L76.3601 63.9102L74.9435 67.1792Z" fill="black"/>
<path d="M52.4688 84.4243L53.722 87.6389L57.1545 86.6854L55.5199 89.6276L58.3804 91.8887L54.8934 92.1883L55.0568 95.7571L52.5233 93.4142L49.7718 95.7571L50.0442 92.3518L46.7207 91.589L49.6356 89.5458L48.0556 86.6037L51.1884 87.6389L52.4688 84.4243Z" fill="black"/>
<path d="M76.169 85.9219L77.1769 88.8913H80.2553L77.7763 90.7982L78.7297 93.8494L76.169 92.0241L73.6355 93.8494L74.5617 90.7982L72.0554 88.9185L75.0521 88.8913L76.169 85.9219Z" fill="black"/>
<path d="M74.8072 109.895L71.6744 108.806L73.2544 111.802L70.3123 113.845L73.6903 114.581L73.4179 118.013L76.1421 115.671L78.8663 118.041L78.4849 114.663L82.0264 114.227L79.1387 111.938L80.7733 108.969L77.3952 109.95L76.1421 106.681L74.8072 109.895Z" fill="black"/>
<path d="M68.7324 46.5566C67.7245 46.5566 66.1717 47.946 65.6541 48.4908C67.6972 47.7825 68.3783 48.1639 68.9231 47.5374C69.0048 47.1287 69.0866 46.5566 68.7324 46.5566Z" fill="black"/>
<path d="M70.0675 46.9927C69.934 48.2867 70.5878 49.5316 71.7292 50.1528L71.9199 49.172C71.623 48.2267 70.9556 47.4394 70.0675 46.9927Z" fill="black"/>
<path d="M69.4948 49.4443C69.4948 49.7985 69.0589 50.2616 69.1679 50.6702C69.2768 51.0789 70.4483 51.651 70.8024 52.7406C71.241 51.4712 70.6853 50.0709 69.4948 49.4443Z" fill="black"/>
<path d="M68.7319 51.5698L68.2415 52.4416C67.397 53.722 68.9498 54.7299 68.9226 55.5199C69.5492 54.7626 69.7998 53.7601 69.6036 52.7957C69.4892 52.289 69.1759 51.8477 68.7319 51.5698Z" fill="black"/>
<path d="M65.6266 51.7606C65.0545 51.9785 63.7196 52.8503 62.9023 52.7686C63.2293 53.2044 64.7276 53.0955 65.2452 53.1772C65.7628 53.2589 66.798 52.1692 67.2611 51.4609L65.6266 51.7606Z" fill="black"/>
<path d="M67.0704 53.9937C65.2452 54.4295 66.4166 56.5544 64.8638 57.8076C65.9262 57.6169 66.3893 57.5896 67.0432 56.3365C67.4055 55.6009 67.4164 54.7401 67.0704 53.9937Z" fill="black"/>
<path d="M52.9315 49.9349C52.5801 50.8366 52.8307 51.8609 53.5581 52.4957C53.2584 50.5615 55.5468 49.7715 54.4843 48.1914C53.7324 48.5101 53.1631 49.1503 52.9315 49.9349Z" fill="black"/>
<path d="M60.5593 55.3286C60.5593 55.7645 62.3573 55.6556 63.1473 55.3286C63.9374 55.0017 64.9181 54.7021 65.0543 54.239C62.0032 53.5034 63.1201 54.7293 60.5593 55.3286Z" fill="black"/>
<path d="M64.3191 50.7799C64.4825 51.1885 66.1443 50.7799 66.8799 50.3168C67.6154 49.8537 68.4871 49.3905 68.5416 48.9002C65.3543 48.7367 66.6347 49.6902 64.3191 50.7799Z" fill="black"/>
<path d="M53.9396 46.5564C53.4765 46.3657 52.1961 47.0195 51.8692 47.2375C51.0791 47.6188 49.8532 48.8447 50.1257 49.1716C52.3868 47.8368 52.3868 49.4168 53.9396 46.5564Z" fill="black"/>
<path d="M58.2441 41.1093C59.3338 41.4089 59.8242 42.0628 60.5597 42.1445C61.2953 42.2262 61.7039 41.9265 61.8673 41.6269C61.5132 40.6189 59.3611 40.7279 58.2441 41.1093Z" fill="black"/>
<path d="M63.2835 45.9579C63.2835 44.841 63.6376 44.1599 63.4742 43.4516C63.3107 42.7433 62.9021 42.4436 62.5479 42.3892C61.6489 43.0702 62.4934 45.0589 63.2835 45.9579Z" fill="black"/>
<path d="M58.1075 42.0617C57.045 41.9255 55.969 42.2089 55.1108 42.8518C56.2823 42.8518 57.0178 44.0232 58.3799 43.4511L59.2789 42.988C59.0119 42.5521 58.5951 42.2225 58.1075 42.0617Z" fill="black"/>
<path d="M59.8782 44.3504C59.7692 45.4156 60.0825 46.4835 60.7499 47.3198C60.7499 46.1484 61.8941 45.3856 61.2675 43.9963L60.7772 43.1245C60.3386 43.4078 60.0171 43.8464 59.8782 44.3504Z" fill="black"/>
<path d="M64.4281 56.2549H63.4201C61.949 56.4456 61.9763 57.9439 60.9138 58.4343C61.979 58.5732 63.0523 58.2681 63.8832 57.5897C64.2047 57.2138 64.3954 56.748 64.4281 56.2549Z" fill="black"/>
<path d="M54.2393 44.023C52.9044 44.4862 52.8227 44.9493 52.4685 45.9572C53.9123 44.6224 55.8738 45.9572 56.5548 44.3227C55.8683 43.8814 55.0184 43.7697 54.2393 44.023Z" fill="black"/>
<path d="M57.3726 46.5564C57.3726 47.973 57.9174 48.1637 58.8164 48.7631C57.863 47.0196 59.7699 45.5212 58.2716 44.4043C57.6668 44.9519 57.3344 45.7419 57.3726 46.5564Z" fill="black"/>
<path d="M55.7103 46.5566C55.416 48.0659 55.6966 49.6323 56.5003 50.9426C57.0043 49.932 57.056 48.7524 56.6365 47.7008C56.473 47.2105 56.0917 46.5566 55.7103 46.5566Z" fill="black"/>
<path d="M216.412 11.8773C216.412 12.0407 215.459 15.8819 215.459 16.3995C215.459 16.9171 215.731 17.0805 215.976 17.0805C216.33 17.0615 216.622 16.8027 216.685 16.454L217.366 15.2281C217.938 14.3563 218.837 14.1111 221.343 14.0567H227.146V31.2737C227.146 35.1694 227.146 38.5202 226.955 40.2364C226.764 41.4623 226.574 42.1161 225.974 42.2523L224.803 42.3885C224.468 42.3559 224.176 42.6228 224.176 42.9606C224.176 43.6144 224.912 43.6144 225.13 43.6144H228.535H229.679H234.31C235.182 43.6144 235.291 43.1513 235.291 42.9606C235.277 42.6174 234.98 42.3586 234.637 42.3885L232.812 42.2251C231.831 42.0889 231.586 41.4623 231.477 40.2364C231.259 38.5202 231.259 35.1694 231.259 31.2737V13.866H236.163C240.167 13.866 240.821 14.9284 240.957 15.8819V16.5902C240.957 16.9716 240.957 17.5709 241.611 17.5709C241.611 17.5709 242.238 17.5709 242.238 16.7264V15.3915V12.177C242.238 11.9318 242.238 11.3597 241.72 11.3597H241.23C240.042 11.6212 238.824 11.7384 237.607 11.7138H222.188L218.973 11.4959L217.611 11.169L217.093 11.0055C216.712 10.9783 216.576 11.4414 216.412 11.8773Z" fill="black"/>
<path d="M272.231 11.6606H271.033H266.892C266.647 11.6606 265.911 11.6606 265.911 12.3145C265.928 12.6577 266.225 12.9192 266.565 12.8865H267.9C269.017 13.1317 269.344 13.5676 269.426 14.957V23.8924V24.7641H251.936V23.9469V15.0114C251.936 13.6221 252.317 13.1045 253.216 12.941H254.197C254.54 12.9737 254.837 12.7122 254.851 12.3689C254.851 11.9331 254.524 11.7151 253.87 11.7151H250.492H249.266H245.098C244.472 11.7151 244.145 11.9331 244.145 12.3689C244.161 12.7013 244.442 12.9574 244.771 12.941H246.106C247.25 13.1862 247.577 13.6221 247.659 15.0114V23.9469V31.2478C247.659 35.1434 247.659 38.4942 247.468 40.2105C247.278 41.4364 247.087 42.0902 246.515 42.2264L245.316 42.3626C244.976 42.3326 244.679 42.5914 244.662 42.9347C244.662 43.5885 245.425 43.5885 245.67 43.5885H249.048H250.193H254.824C255.695 43.5885 255.777 43.1254 255.777 42.9347C255.78 42.5969 255.488 42.3299 255.151 42.3626L253.325 42.1991C252.345 42.0629 252.099 41.4364 251.991 40.2105C251.773 38.4942 251.773 35.1434 251.773 31.2478V26.889H269.289V31.1661C269.289 35.0617 269.289 38.4125 269.099 40.1287C268.935 41.3274 268.717 42.0084 268.145 42.1447L266.974 42.2809C266.628 42.2318 266.317 42.5015 266.32 42.853C266.32 43.5068 267.055 43.5068 267.301 43.5068H270.679H271.823H276.454C277.353 43.5068 277.435 43.0436 277.435 42.853C277.44 42.5015 277.13 42.2318 276.781 42.2809L274.956 42.1174C273.975 41.9812 273.73 41.3546 273.621 40.1287C273.403 38.4125 273.403 35.0617 273.403 31.1661V23.8924V14.957C273.403 13.5404 273.812 13.05 274.683 12.8865H275.664C276.007 12.9192 276.304 12.6577 276.318 12.3145C276.318 11.6606 275.582 11.6606 275.337 11.6606H272.231Z" fill="black"/>
<path d="M298.711 11.3597H298.52L296.804 11.5777H286.67H282.529C282.284 11.5777 281.548 11.5777 281.548 12.2315C281.565 12.5747 281.862 12.8363 282.202 12.8036H283.537C284.654 13.0488 285.008 13.4846 285.063 14.874V23.8094V31.1103C285.063 35.006 285.063 38.3568 284.845 40.073C284.681 41.2989 284.49 41.9527 283.891 42.0889L282.72 42.2251C282.374 42.1761 282.063 42.4458 282.066 42.7972C282.066 43.451 282.801 43.451 283.047 43.451H286.425H287.106H288.686L297.349 43.6417C298.983 43.6417 299.528 43.6417 299.882 42.3341C300.138 40.9829 300.321 39.6181 300.427 38.2478C300.427 37.9209 300.427 37.2943 299.855 37.2943C299.283 37.2943 299.256 37.8664 299.201 38.1933C298.929 39.7734 298.466 40.5361 297.512 40.9175C296.254 41.2581 294.949 41.397 293.644 41.3262C289.639 41.3262 289.285 40.8358 289.176 38.2478V27.4871L295.033 27.7323C296.45 27.8685 296.777 28.4134 296.913 28.931L297.076 30.2386C297.046 30.5955 297.319 30.906 297.676 30.9196C298.275 30.9196 298.275 30.1841 298.275 29.83L298.438 27.1057L298.765 24.7629C298.765 24.1636 298.384 24.1091 298.248 24.1091L297.567 24.7629C297.24 25.117 296.749 25.1988 295.796 25.2805H289.231L289.394 13.866C291.211 13.7761 293.028 13.7761 294.843 13.866C297.104 14.1112 297.322 14.6288 297.567 15.0919L297.785 16.454C297.785 17.2441 298.248 17.3258 298.438 17.3258C298.629 17.3258 298.929 17.1896 299.038 16.6175L299.201 14.4926V13.866L299.474 12.4494V11.9046C299.474 11.2508 299.092 11.1963 298.983 11.1963L298.711 11.3597Z" fill="black"/>
<path d="M345.976 11.6606H344.696H340.882C340.637 11.6606 339.901 11.6606 339.901 12.3145C339.918 12.6577 340.215 12.9192 340.555 12.8865H341.89C343.116 13.1317 343.334 13.6493 343.443 14.957V23.8924V29.0684C343.443 34.0265 342.762 37.0231 341.127 39.039C339.544 40.8452 337.264 41.8886 334.862 41.8995C332.628 42.0793 330.424 41.2838 328.814 39.7201C327.315 38.2763 325.817 35.9879 325.817 29.695V23.8924V14.957C325.817 13.5131 326.199 13.0228 327.07 12.8865H328.051C328.394 12.9192 328.691 12.6577 328.705 12.3145C328.705 11.6606 327.969 11.6606 327.724 11.6606H324.646H322.766H318.843C318.625 11.6606 317.89 11.6606 317.89 12.3145C317.906 12.6468 318.187 12.9029 318.516 12.8865H319.878C320.995 13.1317 321.322 13.5676 321.404 14.957V23.8924V29.9402C321.404 36.6417 323.393 39.4204 325.109 41.0822C327.552 43.1363 330.666 44.2123 333.854 44.1061C337.128 44.3268 340.356 43.2507 342.843 41.1095C346.303 38.0038 346.766 32.7189 346.766 28.4691V23.8924V14.957C346.766 13.5404 347.121 13.05 348.02 12.8865H349C349.343 12.9192 349.64 12.6577 349.654 12.3145C349.654 11.6606 348.918 11.6606 348.673 11.6606H345.976Z" fill="black"/>
<path d="M357.118 13.3755V37.1307C357.118 40.8357 356.9 41.8436 356.11 42.0888L354.503 42.3068C354.157 42.2577 353.846 42.5274 353.849 42.8788C353.849 43.5327 354.53 43.5326 354.83 43.5326H358.126H359.407H363.193C363.493 43.5326 364.256 43.5327 364.256 42.8788C364.261 42.5274 363.951 42.2577 363.602 42.3068L361.613 42.0888C360.769 41.8436 360.333 41.0536 360.224 37.5666C360.224 37.5666 359.761 20.1316 359.733 18.4971C360.741 19.6412 369.977 29.7753 369.977 29.7753C374.471 34.6245 380.383 40.6722 380.873 41.0264C383.216 43.3964 383.598 43.7506 384.115 43.7506C384.633 43.7506 384.796 43.2602 384.796 40.5088V16.2087C384.796 13.6207 385.014 13.0486 386.077 12.8307H387.003C387.548 12.8307 387.793 12.5038 387.793 12.2041C387.793 11.9045 387.057 11.6048 386.73 11.6048H384.006H382.399H378.966C378.558 11.6048 377.822 11.6048 377.822 12.2041C377.784 12.5773 378.106 12.8879 378.476 12.8307L380.438 13.0214C381.418 13.2938 381.745 13.8387 381.8 16.6446C381.8 16.6446 382.154 32.9899 382.235 36.8856L379.157 33.5348L372.864 26.6697L359.243 12.0679C358.671 11.4141 358.29 11.0327 357.935 11.0327C357.581 11.0327 357.118 11.9317 357.118 13.3755Z" fill="black"/>
<path d="M399.589 11.6606H398.363H394.821C394.576 11.6606 393.841 11.6606 393.841 12.3145C393.857 12.6468 394.138 12.9029 394.467 12.8865H395.693C396.32 13.05 396.783 13.4586 396.864 14.9297V23.8651V31.1661C396.864 35.0617 396.864 38.4125 396.647 40.1287C396.483 41.3819 396.292 42.0084 395.693 42.1447L394.522 42.2809C394.181 42.2509 393.884 42.5097 393.868 42.853C393.868 43.5068 394.603 43.5068 394.849 43.5068H398.254H399.398H404.002C404.901 43.5068 405.01 43.0436 405.01 42.853C404.996 42.5097 404.699 42.2509 404.356 42.2809L402.531 42.1174C401.55 42.1174 401.305 41.3546 401.169 40.1287C401.087 38.3852 401.087 35.0889 401.087 31.1933V23.8924V14.957C401.087 13.5676 401.468 13.05 402.367 12.8865H403.348C403.691 12.9192 403.988 12.6577 404.002 12.3145C404.002 11.6606 403.239 11.6606 402.994 11.6606H399.589Z" fill="black"/>
<path d="M436.665 11.6601H435.085H432.007C431.571 11.6601 430.781 11.6601 430.781 12.3139C430.781 12.5319 430.781 12.886 431.544 12.886H433.015C433.233 13.0304 433.358 13.281 433.342 13.5398L432.988 15.0109C432.143 17.7351 426.994 31.1928 424.434 37.2678L416.751 16.7816C416.264 15.7165 415.89 14.6023 415.634 13.4581C415.623 13.2129 415.781 12.9868 416.016 12.9133L417.459 12.7498C418.113 12.7498 418.168 12.3139 418.168 12.1232C418.168 11.5239 417.269 11.5239 416.751 11.5239H413.727H411.984H408.143C407.571 11.5239 406.753 11.5239 406.753 12.1232C406.737 12.4883 407.045 12.7852 407.407 12.7498H408.905C410.186 13.1312 410.758 13.4853 411.63 15.7737L421.9 41.4358C422.663 43.37 422.881 43.9421 423.589 43.9421C424.297 43.9421 424.27 43.5335 424.897 42.1714L425.605 40.6186L430.726 28.6048L433.178 22.6932L435.603 16.8089C436.692 14.0847 437.292 13.3764 437.782 13.0495C438.33 12.7416 438.954 12.5918 439.58 12.6136C440.288 12.6136 440.397 12.2322 440.397 11.987C440.397 11.7418 440.043 11.3877 439.362 11.3877L436.665 11.6601Z" fill="black"/>
<path d="M459.304 11.3601H459.113L457.397 11.5781H447.399H443.258C443.013 11.5781 442.277 11.5781 442.277 12.2319C442.294 12.5751 442.591 12.8367 442.931 12.804H444.266C445.383 13.0491 445.737 13.485 445.792 14.8744V23.8098V31.1107C445.792 35.0064 445.792 38.3571 445.574 40.0734C445.41 41.2993 445.22 41.9531 444.62 42.0893L443.449 42.2255C443.103 42.1765 442.792 42.4462 442.795 42.7976C442.795 43.4514 443.53 43.4514 443.776 43.4514H447.154H447.835H449.415L458.078 43.6421C459.712 43.6421 460.284 43.6421 460.611 42.3345C460.867 40.9833 461.05 39.6185 461.156 38.2482C461.156 37.9213 461.156 37.2947 460.611 37.2947C460.067 37.2947 459.985 37.8395 459.93 38.1664C459.658 39.7737 459.195 40.5365 458.241 40.8907C456.983 41.2312 455.678 41.3674 454.373 41.2993C450.368 41.2993 449.987 40.8089 449.905 38.2209V27.4875L455.762 27.7327C457.342 27.8689 457.533 28.5772 457.642 28.9586L457.805 30.239C457.805 30.6476 458.023 30.92 458.405 30.92C458.786 30.92 459.004 30.1845 459.004 29.8303L459.168 27.1061L459.522 24.7633C459.522 24.164 459.113 24.1095 458.977 24.1095L458.296 24.7633C457.914 25.1719 457.424 25.2536 456.471 25.3354H449.905L450.123 13.8664H455.572C457.833 14.1116 458.051 14.6292 458.296 15.0923L458.514 16.4544C458.514 17.2444 458.977 17.3262 459.168 17.3262C459.358 17.3262 459.658 17.3262 459.767 16.5906L459.93 14.6292V13.8392L460.257 11.8777C460.257 11.2512 459.93 11.1694 459.767 11.1694L459.304 11.3601Z" fill="black"/>
<path d="M474.396 27.7325C474.352 27.6562 474.352 27.5636 474.396 27.4873V13.8662C474.396 13.8662 474.396 13.7027 474.396 13.6755C475.292 13.4821 476.207 13.4004 477.12 13.4303C481.397 13.4303 483.958 16.3997 483.958 21.4123C484.184 23.7088 483.304 25.9754 481.588 27.5145C480.708 28.0567 479.681 28.3127 478.646 28.2501C477.21 28.3536 475.766 28.1765 474.396 27.7325ZM473.769 11.6323H472.38H471.917H467.776C467.531 11.6323 466.795 11.6323 466.795 12.2861C466.812 12.6294 467.109 12.8909 467.449 12.8582H468.784C469.901 13.1034 470.228 13.5393 470.31 14.9286V23.8641V31.165C470.31 35.0606 470.31 38.4114 470.119 40.1277C469.955 41.3263 469.737 42.0074 469.165 42.1436L467.967 42.2798C467.632 42.2471 467.34 42.5141 467.34 42.8519C467.34 43.5057 468.076 43.5057 468.321 43.5057L472.053 43.3695H472.707H477.311C478.21 43.3695 478.291 42.9064 478.291 42.7157C478.297 42.3643 477.986 42.0946 477.638 42.1436L475.812 41.9801C474.832 41.8439 474.587 41.2174 474.478 39.9915C474.26 38.2752 474.26 34.9244 474.26 31.0288V30.2115H479.327L479.654 30.375L481.097 32.3364L484.149 36.4772L484.693 37.2128C486.026 39.3594 487.777 41.2119 489.842 42.6612C491.264 43.3559 492.847 43.6501 494.419 43.5057H497.361C497.879 43.5057 498.696 43.5057 498.696 42.8519C498.641 42.5086 498.336 42.2635 497.988 42.2798H496.435C494.517 41.9311 492.79 40.9068 491.558 39.3921C489.379 37.0765 486.846 33.8075 483.903 30.0481L483.113 29.0129C486.08 26.6428 487.878 23.1067 488.044 19.3146C487.979 16.9963 486.881 14.8278 485.048 13.4031C482.716 11.9947 480.005 11.3381 477.284 11.5234L473.769 11.6323Z" fill="black"/>
<path d="M500.548 18.7699C500.548 21.4942 501.475 24.2184 505.997 28.005L507.849 29.5306C511.5 32.5272 512.508 34.0801 512.508 36.7498C512.502 39.7846 509.922 42.1737 506.896 41.953C504.242 42.2364 501.774 40.5528 501.066 37.9757V36.5046C501.066 36.2594 501.066 35.7418 500.467 35.7418C499.867 35.7418 499.84 36.3412 499.813 36.6681V37.0767L499.54 41.1085C499.54 42.2255 499.54 42.5796 500.33 42.961C502.126 43.7783 504.082 44.1706 506.051 44.1052C508.329 44.1842 510.576 43.5576 512.48 42.3072C514.769 40.6481 516.123 37.9948 516.131 35.1697C516.131 31.9279 515.123 29.2582 509.947 25.1719L508.803 24.2729C504.825 21.031 503.872 19.6962 503.872 17.544C503.798 14.9233 506.027 12.8202 508.639 13.0491C512.072 13.0491 513.216 14.4929 513.543 15.0922C513.799 15.7215 513.973 16.3808 514.061 17.0537C514.061 17.3533 514.06 17.8709 514.687 17.8709C515.314 17.8709 515.314 17.0537 515.314 16.5906V12.5315V12.2046C515.314 11.6052 514.796 11.6052 514.605 11.6052L513.216 11.4145C511.933 11.104 510.614 10.9569 509.293 10.9787C504.117 10.9787 500.548 14.1115 500.548 18.7699Z" fill="black"/>
<path d="M528.362 11.6606H527.028H523.486C522.832 11.6606 522.505 11.8786 522.505 12.3145C522.522 12.6577 522.819 12.9192 523.159 12.8865H524.358C524.93 13.0228 525.447 13.3769 525.529 14.9297V23.8651V31.1661C525.529 35.0617 525.529 38.4125 525.339 40.1287C525.148 41.3546 524.957 42.0084 524.385 42.1447L523.186 42.2809C522.851 42.2482 522.56 42.5151 522.56 42.853C522.56 43.5068 523.295 43.5068 523.513 43.5068H526.919H528.09H532.694C533.566 43.5068 533.675 43.0436 533.675 42.853C533.661 42.5097 533.364 42.2509 533.021 42.2809L531.196 42.1174C530.215 41.9812 529.97 41.3546 529.861 40.1287C529.643 38.4125 529.643 35.0617 529.643 31.1661V23.8924V14.957C529.643 13.5676 530.051 13.05 530.923 12.8865H531.904C532.247 12.9192 532.544 12.6577 532.558 12.3145C532.558 11.6606 531.822 11.6606 531.577 11.6606H528.362Z" fill="black"/>
<path d="M537.625 11.9863C537.625 11.9863 536.671 15.882 536.671 16.3996C536.671 16.9172 536.971 17.0806 537.216 17.0806C537.461 17.0806 537.815 16.7537 537.924 16.454L538.605 15.2281C539.177 14.3564 540.049 14.1112 542.555 14.0567H548.385V31.2738C548.385 35.1694 548.385 38.5202 548.167 40.2365C548.004 41.4351 547.813 42.1162 547.214 42.2524L546.042 42.3886C545.696 42.3396 545.386 42.6093 545.389 42.9607C545.389 43.6145 546.124 43.6145 546.369 43.6145H549.747H550.919H555.523C556.394 43.6145 556.503 43.2059 556.503 42.9607C556.506 42.6229 556.215 42.3559 555.877 42.3886L554.052 42.2252C553.071 42.2252 552.826 41.4624 552.69 40.2365C552.499 38.5202 552.499 35.1694 552.499 31.2738V13.866H557.375C561.38 13.866 562.061 14.9285 562.197 15.882V16.5903C562.197 16.9716 562.197 17.571 562.851 17.571C562.851 17.571 563.45 17.571 563.45 16.7265V15.3916V12.177C563.45 11.9318 563.45 11.3598 562.933 11.3598H562.442C561.263 11.624 560.056 11.7411 558.846 11.7139H543.291L540.049 11.496L538.714 11.1691L538.197 11.0056C537.979 10.9784 537.788 11.4142 537.625 11.9863Z" fill="black"/>
<path d="M591.537 11.6602H589.766H587.696C586.851 11.6602 586.715 12.0144 586.715 12.2323C586.715 12.4503 587.124 12.8044 587.533 12.9406C587.941 13.0768 587.996 12.9406 587.996 13.8124C587.96 14.5043 587.734 15.1745 587.342 15.7466C586.634 16.918 581.893 24.9272 580.695 27.4607C579.333 25.1451 573.993 15.9645 573.367 14.8476C573.094 14.4117 572.928 13.9159 572.876 13.4037C572.876 13.213 573.012 13.0496 573.258 12.9134H573.448C573.721 12.9134 574.048 12.6954 574.048 12.3413C574.048 11.9871 573.748 11.742 573.203 11.742H570.261H568.735H565.603C564.785 11.742 564.758 12.2596 564.758 12.3413C564.755 12.7227 565.09 13.0169 565.466 12.9679C566.044 13.0387 566.594 13.243 567.074 13.5672C568.158 14.3926 569.081 15.406 569.798 16.5638C571.269 18.7432 576.799 27.8421 577.072 28.4414C577.739 29.7463 578.06 31.2011 577.998 32.664V36.2327V40.3463C577.998 41.1908 577.725 42.1987 576.963 42.3622L575.791 42.4984C575.451 42.4684 575.154 42.7272 575.137 43.0705C575.137 43.7243 575.873 43.7243 576.118 43.7243H579.523H580.668H585.271C586.17 43.7243 586.252 43.2612 586.252 43.0705C586.258 42.7191 585.947 42.4494 585.598 42.4984L583.8 42.3349C582.874 42.3349 582.465 41.6539 582.357 40.3463V36.2327V32.4733C582.272 31.1139 582.465 29.7518 582.929 28.4687C585.312 23.9519 587.941 19.5686 590.802 15.3379C591.371 14.5316 592.093 13.8478 592.926 13.322C593.45 12.9869 594.052 12.799 594.67 12.7772C595.297 12.7772 595.514 12.423 595.514 12.1234C595.514 11.8237 595.297 11.5513 594.67 11.5513L591.537 11.6602Z" fill="black"/>
<path d="M613.849 26.3431C613.849 18.1704 618.371 13.0216 625.617 13.0216C631.556 13.0216 637.903 17.7073 637.903 28.0048C637.903 41.2445 628.641 41.8984 626.789 41.8984C619.161 41.8984 613.849 35.4964 613.849 26.3431ZM609.272 27.4872C608.806 36.7441 616.355 44.421 625.617 44.105C635.182 44.3202 642.927 36.39 642.48 26.8334C642.48 17.3531 635.806 10.9785 625.862 10.9785C616.676 10.8395 609.179 18.3012 609.272 27.4872Z" fill="black"/>
<path d="M664.056 11.387H663.838L662.585 11.5232H651.361H647.22C646.975 11.5232 646.239 11.5232 646.239 12.177C646.256 12.5203 646.553 12.7818 646.893 12.7491H648.228C649.372 12.9943 649.699 13.4301 649.781 14.8195V23.7549V31.0559C649.781 34.9515 649.781 38.3023 649.563 40.0185C649.399 41.2444 649.209 41.8982 648.609 42.0345L647.438 42.1707C647.097 42.1407 646.8 42.3995 646.784 42.7428C646.784 43.3966 647.52 43.3966 647.765 43.3966H651.143H652.314H656.918C657.817 43.3966 657.899 42.9334 657.899 42.7428C657.904 42.3913 657.594 42.1216 657.245 42.1707L655.447 42.0072C654.466 41.871 654.221 41.2444 654.085 40.0185C653.894 38.3023 653.894 34.9515 653.894 31.0559V27.6778C655.42 27.6778 659.152 27.6778 660.078 27.6778C660.904 27.7214 661.637 28.2118 661.985 28.9582L662.176 30.1569V30.402C662.162 30.7453 662.435 31.0286 662.775 31.0286C663.402 31.0286 663.402 30.3203 663.402 29.9389L663.565 27.2147L663.892 24.8719C663.892 24.2725 663.484 24.2181 663.375 24.2181C663.266 24.2181 662.884 24.4632 662.721 24.6539C662.557 24.8446 662.012 25.3077 660.977 25.3895H659.152H653.704V13.866C653.704 13.7298 660.133 13.866 660.133 13.866C661.124 13.7571 662.097 14.1957 662.666 15.0102L663.02 16.454C663.02 17.2168 663.511 17.2713 663.62 17.2713C663.729 17.2713 664.137 17.1351 664.274 16.563L664.437 14.4926V13.866L664.682 12.4494V11.9046C664.682 11.496 664.464 11.1963 664.137 11.1963L664.056 11.387Z" fill="black"/>
<path d="M662.748 67.5601H220.58V70.0936H662.748V67.5601Z" fill="black"/>
<path d="M265.121 94.1223L247.85 130.382L230.524 94.5854C229.734 92.9782 229.298 92.4878 228.671 92.4878C228.045 92.4878 227.663 92.8147 227.418 94.2858L221.071 136.021C220.744 138.391 220.199 140.625 218.564 140.952L216.685 141.142C216.385 141.142 215.513 141.142 215.513 141.742C215.513 142.341 216.467 142.613 216.821 142.613H220.744H223.141H225.211H229.87C230.687 142.613 231.559 142.613 231.559 141.742C231.559 141.36 231.15 141.142 230.442 141.142L227.718 140.843C226.519 140.543 225.92 139.916 225.92 138.936L226.11 135.939C226.11 135.939 229.025 113.655 229.407 110.795C229.924 111.639 232.512 117.142 232.512 117.142L236.054 124.715C236.817 126.486 241.775 136.13 243.409 139.263L243.6 139.617C244.581 141.442 245.153 142.559 245.807 142.559C246.46 142.559 246.814 141.905 248.313 138.881L262.261 109.814C262.261 110.086 266.047 137.928 266.047 137.928C266.124 138.388 266.17 138.851 266.184 139.317C266.184 140.107 266.02 140.461 265.857 140.516C265.693 140.57 265.039 140.924 265.039 141.36C265.039 141.96 265.693 142.123 267.028 142.232C269.562 142.423 278.388 142.613 280.05 142.613C281.221 142.613 281.875 142.314 281.875 141.742C281.875 141.17 281.058 141.142 280.677 141.142C279.344 141.148 278.02 140.938 276.754 140.516C274.874 139.944 274.275 138.037 273.73 134.168L267.9 94.6127C267.701 93.1961 267.265 92.4878 266.592 92.4878C265.993 92.4878 265.639 93.1144 265.121 94.1223Z" fill="black"/>
<path d="M315.22 93.5507H314.838L312.114 93.932C311.024 93.932 300.563 93.932 296.123 93.932H292.854H292.118H286.942C286.179 93.932 285.362 93.932 285.362 94.6676C285.362 95.4031 286.207 95.4031 286.615 95.4031L289.067 95.5938C291.165 96.0297 291.601 97.0649 291.791 99.1081C291.982 101.151 291.791 102.895 291.791 112.729V124.007C291.791 129.864 291.791 134.904 291.464 137.629C291.165 139.699 290.838 140.789 289.721 141.007L287.46 141.252C286.942 141.252 286.261 141.252 286.261 141.933C286.261 142.614 286.751 142.723 287.705 142.723L292.145 142.587H295.769L302.416 142.777H304.295H313.503C315.982 142.777 316.636 142.777 317.126 141.007C317.57 138.642 317.846 136.247 317.944 133.842C317.944 133.215 317.944 132.534 317.29 132.534C316.636 132.534 316.554 132.997 316.418 133.624C315.982 136.348 315.22 137.52 313.694 138.255C311.773 138.884 309.749 139.143 307.728 139.018C301.054 139.181 300.291 137.983 300.291 133.733V118.75C300.291 118.287 300.291 118.287 300.536 118.287C301.953 118.287 308.354 118.287 309.58 118.477C311.624 118.695 312.686 119.431 313.04 120.847L313.258 122.536V123.136C313.22 123.552 313.58 123.898 313.994 123.844C314.729 123.844 314.729 122.972 314.729 122.482V120.466L314.865 118.178L315.301 114.2V113.519C315.301 113.083 315.083 112.838 314.702 112.838C314.321 112.838 314.075 113.165 313.639 113.628C313.204 114.091 312.114 114.5 310.588 114.636C309.662 114.636 306.012 114.636 300.373 114.636C300.182 114.636 300.073 114.636 300.073 114.064V98.1001C300.073 97.6097 300.236 97.6097 300.373 97.6097C301.598 97.6097 308.327 97.6097 309.444 97.8822C312.659 98.2636 313.204 99.0263 313.612 100.089C313.857 100.808 313.977 101.565 313.966 102.323C313.966 102.65 313.966 103.385 314.702 103.385C315.437 103.385 315.465 102.786 315.492 102.541L315.737 99.6257V98.318L316.173 94.7766V94.1227C316.173 93.9593 316.173 93.3872 315.628 93.3872L315.22 93.5507Z" fill="black"/>
<path d="M339.901 94.0125H336.523H333.281H327.832C327.07 94.0125 326.252 94.0125 326.252 94.748C326.252 95.4836 327.097 95.4835 327.506 95.4835L329.576 95.6742C331.674 96.1101 332.11 97.1453 332.3 99.1885C332.491 101.232 332.436 102.975 332.436 112.81V124.088C332.436 129.945 332.436 134.985 332.109 137.709C331.81 139.779 331.483 140.869 330.366 141.087L328.105 141.332C327.587 141.332 326.933 141.332 326.933 142.013C326.933 142.694 327.996 142.803 328.35 142.803L332.763 142.667H336.414L346.412 142.912H355.047C358.425 142.912 358.807 142.585 359.243 141.06C359.747 138.627 360.065 136.159 360.196 133.677C360.196 133.051 360.196 132.424 359.542 132.424C358.889 132.424 358.725 133.132 358.671 133.514C358.464 134.889 357.9 136.183 357.036 137.273C355.538 138.908 353.249 139.017 349.681 139.017C344.559 139.017 343.034 138.526 342.026 137.654C341.018 136.783 340.745 132.206 340.745 124.033V112.619C340.745 102.866 340.745 101.123 340.881 98.9978C341.018 96.8729 341.563 95.7832 343.115 95.4835L345.567 95.2928C346.248 95.2928 346.875 95.2928 346.875 94.5573C346.875 93.8218 346.166 93.8218 345.376 93.8218L339.901 94.0125Z" fill="black"/>
<path d="M379.293 93.9856H374.689H372.21H365.972C365.209 93.9856 364.419 93.9856 364.419 94.7212C364.419 95.4567 365.263 95.4567 365.672 95.4567L368.124 95.6474C370.194 96.0833 370.63 97.1185 370.848 99.1617C371.066 101.205 370.848 102.948 370.848 112.783V124.061C370.848 129.918 370.848 134.958 370.521 137.682C370.303 139.371 370.004 140.815 368.805 141.06L366.517 141.305C366.026 141.305 365.345 141.305 365.345 141.986C365.345 142.667 366.435 142.776 366.789 142.776L371.202 142.64H374.853L379.647 142.831H382.126H384.142C396.047 142.831 401.387 135.748 401.387 128.719C401.387 121.691 395.475 116.842 389.863 114.853C393.704 111.748 396.265 108.642 396.265 103.684C396.265 101.396 395.257 93.9312 382.481 93.9312L379.293 93.9856ZM381.391 96.8461C387.112 96.8461 389.237 102.839 389.237 106.626C389.446 109.119 388.501 111.565 386.676 113.273C385.374 114.205 383.775 114.624 382.181 114.445L379.293 114.254C379.103 114.254 378.966 114.254 378.966 113.709V97.9085C378.966 97.2275 378.966 97.064 379.402 96.9823L381.391 96.8461ZM381.009 138.854C379.048 138.064 378.885 137.083 378.885 132.86V117.686C378.885 117.414 378.885 117.387 379.102 117.387H381.827C383.685 117.338 385.51 117.861 387.057 118.885C391.024 121.849 393.309 126.551 393.187 131.498C393.639 135.925 390.059 139.725 385.613 139.535C384.085 139.616 382.557 139.385 381.118 138.854H381.009Z" fill="black"/>
<path d="M407.979 118.259C407.979 130.436 416.152 143.512 433.941 143.512C449.632 143.512 460.584 132.616 460.584 117.115C460.584 102.24 450.64 93.0054 434.567 93.0054C416.315 93.0054 407.979 106.109 407.979 118.259ZM417.132 116.27C417.132 98.9714 426.912 96.4106 432.715 96.4106C443.612 96.4106 451.321 105.891 451.321 119.485C451.321 138.009 441.051 139.998 436.638 139.998C425.142 139.998 417.132 130.245 417.132 116.27Z" fill="black"/>
<path d="M509.729 94.0397H507.876L500.521 93.849C499.785 93.849 499.022 93.849 499.022 94.5846C499.022 95.3201 499.84 95.3201 500.248 95.3201L502.509 95.5108C504.607 95.9467 505.043 96.9819 505.234 99.025C505.424 101.068 505.37 102.812 505.37 112.646V120.655C505.37 127.52 505.097 133.023 501.692 136.429C499.336 138.649 496.214 139.867 492.975 139.834C490.098 139.924 487.286 138.954 485.074 137.11C482.514 135.012 480.144 131.661 480.144 121.473V112.619C480.144 102.866 480.144 101.123 480.144 98.9978C480.144 96.8729 480.852 95.7832 482.405 95.4835L484.23 95.2928C484.584 95.2928 485.401 95.2928 485.401 94.5573C485.401 93.8218 484.584 93.8218 483.849 93.8218H479.163H475.976H472.543H466.631C465.869 93.8218 465.051 93.8218 465.051 94.5573C465.051 95.2928 465.896 95.2928 466.305 95.2928L468.756 95.4835C470.854 95.9194 471.263 96.9546 471.481 98.9978C471.698 101.041 471.481 102.784 471.481 112.619V121.963C471.481 130.136 473.306 135.584 477.229 139.044C481.285 142.264 486.393 143.858 491.558 143.512C496.459 143.74 501.259 142.073 504.961 138.853C510.41 134.249 511.118 126.812 511.118 119.484V112.619C511.118 102.866 511.118 101.123 511.118 98.9978C511.118 96.8729 511.826 95.7832 513.352 95.4835L515.204 95.2928C515.885 95.2928 516.512 95.2928 516.512 94.5573C516.512 93.8218 515.722 93.8218 515.014 93.8218L509.729 94.0397Z" fill="black"/>
<path d="M537.298 94.0129H532.585H530.024H523.813C523.077 94.0129 522.26 94.0129 522.26 94.7484C522.26 95.4839 523.105 95.4839 523.513 95.4839L525.965 95.6746C528.063 96.1105 528.471 97.1457 528.689 99.1889C528.907 101.232 528.689 102.976 528.689 112.81V124.088C528.689 129.945 528.689 134.985 528.39 137.709C528.144 139.398 527.845 140.842 526.646 141.087L524.385 141.333C523.867 141.333 523.186 141.333 523.186 142.014C523.186 142.695 524.276 142.804 524.63 142.804H529.833H532.558H534.628L541.956 142.94C542.31 142.94 543.4 142.94 543.4 142.15C543.4 141.959 543.4 141.469 542.474 141.469L539.341 141.224C537.652 140.978 537.189 139.861 536.998 137.846C536.671 135.121 536.671 130.054 536.671 124.224V122.835C536.671 122.563 536.671 122.481 537.025 122.481H542.474C542.866 122.435 543.256 122.587 543.509 122.89L546.587 127.112L549.856 131.716C553.589 136.865 555.986 139.725 558.683 141.169C560.838 142.193 563.23 142.616 565.602 142.395H571.677C572.113 142.395 573.039 142.395 573.039 141.605C573.039 141.414 573.039 140.924 572.113 140.924L570.37 140.733C567.591 140.139 565.096 138.622 563.287 136.429C560.018 132.996 556.313 128.256 551.627 122.426L549.475 119.702C555.359 114.908 557.893 110.603 557.893 105.346C557.849 101.968 556.291 98.7857 553.643 96.6826C550.058 94.604 545.928 93.656 541.793 93.9584L537.298 94.0129ZM537.298 118.694C536.971 118.531 536.835 118.367 536.835 117.686V98.3171C536.835 97.8268 536.835 97.6633 537.298 97.5543C538.401 97.3419 539.526 97.2574 540.648 97.3092C544.217 97.3092 550.292 99.761 550.292 108.86C550.292 114.744 547.949 117.332 546.56 118.34C545.269 119.245 543.683 119.626 542.12 119.403C540.488 119.397 538.864 119.16 537.298 118.694Z" fill="black"/>
<path d="M580.886 95.1563L580.314 133.05C580.314 138.499 579.987 140.351 578.434 140.841C577.543 141.054 576.628 141.152 575.71 141.141C575.383 141.141 574.538 141.141 574.538 141.822C574.538 142.503 575.437 142.612 576.091 142.612L581.921 142.476H583.011H584.781L590.938 142.612C591.483 142.612 592.573 142.612 592.573 141.822C592.573 141.032 591.701 141.141 591.347 141.141C590.233 141.174 589.121 141.027 588.05 140.705C586.661 140.215 586.035 138.144 585.926 133.758C585.926 133.758 585.245 107.742 585.217 107.17C585.571 107.47 586.525 108.478 586.525 108.478C589.249 111.447 594.698 117.604 600.364 123.107L608.864 131.606L619.025 141.904C619.76 142.639 620.523 143.348 621.313 143.348C622.103 143.348 622.294 142.285 622.294 141.223L623.002 100.823C623.002 97.254 623.574 96.0008 625.236 95.5377L627.116 95.347C627.988 95.347 628.423 95.1018 628.423 94.6115C628.423 93.8759 627.47 93.8759 626.816 93.8759L621.695 94.0394H620.523H618.262H612.814C612.051 94.0394 610.988 94.0394 610.988 94.7749C610.988 95.5105 611.615 95.5105 612.187 95.5105C613.309 95.4532 614.432 95.5813 615.511 95.8918C616.873 96.4367 617.527 97.4447 617.581 101.504C617.581 101.504 618.18 128.392 618.235 130.081H618.071L613.576 125.204L604.096 115.397C594.371 105.726 584.346 94.9656 584.264 94.8566L583.664 94.2028C582.902 93.3583 582.411 92.8135 581.785 92.8135C581.158 92.8135 580.886 94.1483 580.886 95.1563Z" fill="black"/>
<path d="M661.195 93.5507H660.814L658.09 93.932C657 93.932 646.539 93.932 642.099 93.932H638.829H638.094H632.918C632.155 93.932 631.338 93.932 631.338 94.6676C631.338 95.4031 632.182 95.4031 632.591 95.4031L635.043 95.5938C637.14 96.0297 637.549 97.0649 637.767 99.1081C637.985 101.151 637.767 102.895 637.767 112.729V124.007C637.767 129.864 637.767 134.904 637.467 137.629C637.222 139.318 636.923 140.761 635.724 141.007L633.463 141.252C632.945 141.252 632.264 141.252 632.264 141.933C632.264 142.614 633.354 142.723 633.708 142.723L638.121 142.587H641.772L648.419 142.777H650.298H659.506C661.904 142.777 662.639 142.777 663.102 141.007C663.571 138.645 663.854 136.25 663.947 133.842C663.947 133.215 663.947 132.534 663.293 132.534C662.639 132.534 662.53 132.997 662.421 133.624C661.985 136.348 661.223 137.52 659.697 138.255C657.774 138.882 655.752 139.14 653.731 139.018C647.029 139.181 646.267 137.983 646.267 133.733V118.75C646.267 118.287 646.267 118.287 646.485 118.287C647.928 118.287 654.33 118.287 655.556 118.477C657.599 118.695 658.662 119.431 659.016 120.847L659.234 122.536V123.136C659.196 123.552 659.555 123.898 659.969 123.844C660.705 123.844 660.705 122.972 660.705 122.482V120.384L660.841 118.178L661.277 114.2V113.519C661.277 113.083 661.059 112.838 660.678 112.838C660.296 112.838 660.024 113.165 659.615 113.628C659.207 114.091 658.062 114.5 656.564 114.636C655.638 114.636 651.987 114.636 646.348 114.636C646.13 114.636 646.049 114.636 646.049 114.064V98.1001C646.049 97.6097 646.212 97.6097 646.348 97.6097C647.574 97.6097 654.303 97.6097 655.42 97.8822C658.635 98.2636 659.152 99.0263 659.561 100.089C659.822 100.805 659.953 101.563 659.942 102.323C659.942 102.65 659.942 103.385 660.678 103.385C661.413 103.385 661.441 102.759 661.468 102.541L661.713 99.6257V98.318L662.149 94.7493V94.1227C662.149 93.6324 661.958 93.3872 661.604 93.3872L661.195 93.5507Z" fill="black"/>
</svg>
