<svg width="733" height="160" viewBox="0 0 733 160" fill="none" xmlns="http://www.w3.org/2000/svg">
<path d="M570.889 113.659C574.061 113.748 577.219 113.205 580.179 112.062C583.139 110.919 585.842 109.2 588.132 107.003L596.681 116.302C591.035 122.109 583.205 126.428 571.035 126.428C550.171 126.428 536.694 112.592 536.694 93.8499C536.616 89.556 537.401 85.2901 539.002 81.3051C540.602 77.3201 542.987 73.6971 546.013 70.6509C549.04 67.6047 552.647 65.1972 556.621 63.5712C560.595 61.9452 564.854 61.1338 569.148 61.185C589.867 61.185 601.616 76.9585 600.585 98.8222H551.6C553.342 107.896 559.706 113.703 570.868 113.703L570.889 113.659ZM585.795 88.3985C584.46 79.9056 579.409 73.663 569.271 73.663C559.859 73.663 553.291 78.991 551.6 88.3985H585.795ZM249.286 112.984L286.987 74.6793H250.194V62.586H304.476V74.926L266.776 113.217H304.977V125.245H249.301L249.286 112.984ZM347.293 113.667C350.464 113.755 353.622 113.212 356.582 112.069C359.542 110.927 362.246 109.207 364.536 107.01L373.099 116.302C367.453 122.109 359.622 126.428 347.452 126.428C326.588 126.428 313.112 112.592 313.112 93.8499C313.034 89.556 313.819 85.2901 315.42 81.3051C317.02 77.3201 319.405 73.6971 322.431 70.6509C325.458 67.6047 329.065 65.1972 333.039 63.5712C337.013 61.9452 341.272 61.1338 345.566 61.185C366.284 61.185 378.034 76.9585 377.003 98.8222H328.018C329.76 107.896 336.124 113.703 347.286 113.703L347.293 113.667ZM362.213 88.3985C360.885 79.9056 355.827 73.663 345.689 73.663C336.277 73.663 329.709 78.991 328.018 88.3985H362.213ZM458.384 93.7701C458.384 73.7937 473.333 61.214 489.807 61.214C493.759 61.161 497.675 61.9744 501.279 63.5972C504.884 65.2199 508.089 67.6126 510.671 70.607V33.6957H523.987V125.157H510.671V116.447C508.137 119.563 504.936 122.07 501.303 123.781C497.67 125.493 493.699 126.365 489.683 126.333C473.703 126.333 458.391 113.703 458.391 93.7919L458.384 93.7701ZM511.418 93.6757C510.946 76.1092 489.647 67.7616 477.31 80.3484C464.973 92.9353 473.972 114.088 491.555 114.08C502.993 114.08 511.411 104.934 511.411 93.7555L511.418 93.6757ZM609.257 111.903L621.319 105.646C624.57 111.453 630.753 114.959 637.407 114.792C644.955 114.792 648.845 110.916 648.845 106.531C648.845 101.45 641.558 100.39 633.641 98.7642C622.988 96.5865 611.899 92.9934 611.899 80.1089C611.899 70.215 621.311 61.0761 636.137 61.2068C647.749 61.2068 656.501 65.8525 661.435 73.3436L650.26 79.4846C648.713 77.1957 646.609 75.3388 644.145 74.0891C641.682 72.8394 638.941 72.2381 636.181 72.3419C629.018 72.3419 625.295 75.8479 625.295 79.8548C625.295 84.3553 631.072 85.6111 640.129 87.6218C650.434 89.7995 662.118 93.2547 662.118 106.277C662.118 114.988 654.57 126.551 636.74 126.428C623.677 126.428 614.504 121.165 609.214 111.91L609.257 111.903ZM698.272 97.3923L687.713 108.912V125.172H674.397V33.7102H687.713V93.5523L715.987 62.5061H732.206L707.692 89.3639L732.83 125.165H717.757L698.272 97.3923ZM418.063 61.3157C402.229 61.3157 389.035 71.587 389.035 88.609V125.172H402.606V90.1697C402.606 79.8984 408.506 73.7646 418.586 73.7646C428.666 73.7646 433.681 79.9056 433.681 90.1697V125.041H447.179V88.4784C447.179 71.4563 433.862 61.185 418.151 61.185L418.063 61.3157ZM97.4983 42.2611V160H0L97.4983 42.2611ZM97.4983 0C97.5002 12.9346 92.3661 25.3405 83.2249 34.4894C74.0838 43.6383 61.6842 48.7811 48.7528 48.7869C35.8214 48.7811 23.4217 43.6383 14.2806 34.4894C5.13946 25.3405 0.00532745 12.9346 0.00725305 0H97.4983ZM113.558 159.985C113.564 147.056 118.701 134.657 127.842 125.515C136.982 116.372 149.377 111.233 162.304 111.228C175.23 111.233 187.625 116.372 196.766 125.515C205.906 134.657 211.043 147.056 211.049 159.985H113.558ZM113.558 117.724V0.0145098H211.056L113.558 117.724Z" fill="black"/>
</svg>
